<svg xmlns="http://www.w3.org/2000/svg" xmlns:xlink="http://www.w3.org/1999/xlink" width="1080" zoomAndPan="magnify" viewBox="0 0 810 809.999993" height="1080" preserveAspectRatio="xMidYMid meet" version="1.0"><defs><clipPath id="585971d348"><path d="M 63 38.378906 L 747 38.378906 L 747 771.878906 L 63 771.878906 Z M 63 38.378906 " clip-rule="nonzero"/></clipPath><clipPath id="1bc108496e"><path d="M 162 81 L 453 81 L 453 392.921875 L 162 392.921875 Z M 162 81 " clip-rule="nonzero"/></clipPath></defs><g clip-path="url(#585971d348)"><path fill="#5dbecd" d="M 633.273438 459.992188 C 644.445312 459.964844 655.5 458.835938 666.445312 456.605469 C 677.386719 454.375 688.003906 451.085938 698.292969 446.738281 L 698.292969 698.292969 C 698.292969 699.492188 698.261719 700.691406 698.203125 701.890625 C 698.144531 703.089844 698.054688 704.285156 697.9375 705.480469 C 697.820312 706.675781 697.671875 707.867188 697.496094 709.054688 C 697.320312 710.238281 697.117188 711.421875 696.882812 712.597656 C 696.648438 713.777344 696.386719 714.945312 696.09375 716.109375 C 695.800781 717.273438 695.480469 718.429688 695.132812 719.578125 C 694.785156 720.726562 694.410156 721.867188 694.003906 722.996094 C 693.601562 724.125 693.167969 725.246094 692.710938 726.355469 C 692.25 727.460938 691.765625 728.558594 691.25 729.644531 C 690.738281 730.730469 690.199219 731.800781 689.632812 732.859375 C 689.066406 733.917969 688.476562 734.960938 687.859375 735.988281 C 687.242188 737.019531 686.601562 738.03125 685.933594 739.03125 C 685.265625 740.027344 684.578125 741.007812 683.863281 741.972656 C 683.148438 742.9375 682.410156 743.882812 681.648438 744.808594 C 680.886719 745.738281 680.101562 746.644531 679.296875 747.535156 C 678.492188 748.425781 677.664062 749.292969 676.816406 750.140625 C 675.964844 750.988281 675.097656 751.816406 674.207031 752.625 C 673.320312 753.429688 672.410156 754.210938 671.484375 754.972656 C 670.554688 755.734375 669.609375 756.472656 668.644531 757.1875 C 667.683594 757.902344 666.703125 758.59375 665.703125 759.261719 C 664.707031 759.925781 663.691406 760.570312 662.664062 761.1875 C 661.632812 761.804688 660.589844 762.394531 659.53125 762.960938 C 658.472656 763.523438 657.402344 764.066406 656.316406 764.578125 C 655.234375 765.089844 654.136719 765.578125 653.027344 766.035156 C 651.917969 766.496094 650.800781 766.925781 649.667969 767.332031 C 648.539062 767.734375 647.402344 768.113281 646.253906 768.460938 C 645.105469 768.808594 643.949219 769.128906 642.785156 769.421875 C 641.621094 769.710938 640.449219 769.972656 639.273438 770.207031 C 638.09375 770.441406 636.914062 770.648438 635.726562 770.824219 C 634.539062 771 633.347656 771.148438 632.15625 771.265625 C 630.960938 771.382812 629.765625 771.46875 628.566406 771.53125 C 627.367188 771.589844 626.167969 771.617188 624.96875 771.617188 L 514.980469 771.617188 C 513.78125 771.617188 512.582031 771.558594 511.386719 771.441406 C 510.195312 771.324219 509.007812 771.148438 507.828125 770.914062 C 506.652344 770.679688 505.488281 770.386719 504.339844 770.039062 C 503.191406 769.691406 502.0625 769.285156 500.953125 768.828125 C 499.84375 768.367188 498.757812 767.855469 497.699219 767.289062 C 496.640625 766.722656 495.613281 766.105469 494.613281 765.4375 C 493.617188 764.773438 492.652344 764.058594 491.722656 763.296875 C 490.796875 762.535156 489.90625 761.730469 489.058594 760.878906 C 488.210938 760.03125 487.402344 759.140625 486.640625 758.214844 C 485.878906 757.285156 485.164062 756.324219 484.5 755.324219 C 483.832031 754.324219 483.214844 753.296875 482.648438 752.238281 C 482.082031 751.179688 481.570312 750.09375 481.109375 748.984375 C 480.652344 747.875 480.246094 746.746094 479.898438 745.597656 C 479.550781 744.449219 479.257812 743.285156 479.023438 742.109375 C 478.789062 740.929688 478.613281 739.746094 478.496094 738.550781 C 478.378906 737.355469 478.320312 736.15625 478.320312 734.957031 L 478.320312 624.96875 C 478.320312 623.640625 478.285156 622.3125 478.210938 620.984375 C 478.136719 619.660156 478.03125 618.335938 477.886719 617.015625 C 477.742188 615.691406 477.5625 614.375 477.34375 613.066406 C 477.128906 611.753906 476.878906 610.449219 476.589844 609.152344 C 476.304688 607.855469 475.980469 606.566406 475.625 605.285156 C 475.269531 604.003906 474.875 602.734375 474.449219 601.476562 C 474.023438 600.214844 473.566406 598.96875 473.070312 597.734375 C 472.578125 596.503906 472.050781 595.28125 471.492188 594.078125 C 470.929688 592.871094 470.339844 591.683594 469.714844 590.507812 C 469.089844 589.335938 468.433594 588.179688 467.746094 587.042969 C 467.058594 585.90625 466.339844 584.789062 465.59375 583.6875 C 464.84375 582.589844 464.066406 581.511719 463.261719 580.457031 C 462.453125 579.402344 461.621094 578.367188 460.757812 577.355469 C 459.894531 576.34375 459.003906 575.359375 458.085938 574.394531 C 457.171875 573.433594 456.230469 572.496094 455.261719 571.585938 C 454.292969 570.675781 453.304688 569.789062 452.289062 568.933594 C 451.273438 568.074219 450.234375 567.246094 449.175781 566.445312 C 448.113281 565.644531 447.03125 564.871094 445.929688 564.128906 C 444.828125 563.386719 443.707031 562.675781 442.5625 561.992188 C 441.421875 561.3125 440.265625 560.660156 439.089844 560.042969 C 437.910156 559.425781 436.71875 558.839844 435.511719 558.285156 C 434.304688 557.730469 433.082031 557.210938 431.84375 556.722656 C 430.609375 556.238281 429.359375 555.785156 428.097656 555.363281 C 426.835938 554.945312 425.566406 554.558594 424.28125 554.210938 C 423 553.859375 421.710938 553.542969 420.410156 553.265625 C 419.113281 552.984375 417.804688 552.738281 416.492188 552.53125 C 415.179688 552.320312 413.863281 552.148438 412.542969 552.011719 C 411.21875 551.871094 409.894531 551.769531 408.566406 551.707031 C 407.238281 551.640625 405.910156 551.609375 404.582031 551.617188 C 403.253906 551.625 401.925781 551.664062 400.597656 551.746094 C 399.273438 551.824219 397.949219 551.9375 396.628906 552.089844 C 395.308594 552.238281 393.992188 552.425781 392.683594 552.648438 C 390.515625 553.085938 388.371094 553.613281 386.25 554.238281 C 384.128906 554.863281 382.042969 555.574219 379.984375 556.382812 C 377.925781 557.1875 375.90625 558.082031 373.925781 559.0625 C 371.945312 560.042969 370.011719 561.109375 368.125 562.261719 C 366.238281 563.410156 364.402344 564.640625 362.621094 565.953125 C 360.84375 567.261719 359.121094 568.648438 357.464844 570.109375 C 355.804688 571.566406 354.210938 573.097656 352.6875 574.695312 C 351.160156 576.296875 349.707031 577.957031 348.324219 579.683594 C 346.945312 581.410156 345.640625 583.191406 344.414062 585.03125 C 343.191406 586.871094 342.046875 588.761719 340.984375 590.699219 C 339.925781 592.640625 338.949219 594.621094 338.0625 596.644531 C 337.175781 598.667969 336.375 600.726562 335.667969 602.820312 C 334.960938 604.914062 334.34375 607.035156 333.820312 609.183594 C 333.296875 611.328125 332.867188 613.496094 332.53125 615.679688 C 332.195312 617.867188 331.957031 620.0625 331.816406 622.265625 C 331.671875 624.472656 331.625 626.679688 331.671875 628.890625 L 331.671875 734.957031 C 331.671875 736.15625 331.613281 737.355469 331.496094 738.550781 C 331.378906 739.746094 331.203125 740.929688 330.96875 742.109375 C 330.734375 743.285156 330.441406 744.449219 330.09375 745.597656 C 329.746094 746.746094 329.34375 747.875 328.882812 748.984375 C 328.421875 750.09375 327.910156 751.179688 327.34375 752.238281 C 326.777344 753.296875 326.160156 754.324219 325.496094 755.324219 C 324.828125 756.324219 324.113281 757.285156 323.351562 758.214844 C 322.589844 759.140625 321.785156 760.03125 320.933594 760.878906 C 320.085938 761.730469 319.199219 762.535156 318.269531 763.296875 C 317.339844 764.058594 316.378906 764.773438 315.378906 765.4375 C 314.382812 766.105469 313.351562 766.722656 312.292969 767.289062 C 311.234375 767.855469 310.152344 768.367188 309.042969 768.828125 C 307.933594 769.285156 306.800781 769.691406 305.652344 770.039062 C 304.503906 770.386719 303.339844 770.679688 302.164062 770.914062 C 300.984375 771.148438 299.800781 771.324219 298.605469 771.441406 C 297.410156 771.558594 296.210938 771.617188 295.011719 771.617188 L 185.027344 771.617188 C 183.824219 771.617188 182.625 771.589844 181.429688 771.53125 C 180.230469 771.46875 179.03125 771.382812 177.839844 771.265625 C 176.644531 771.148438 175.453125 771 174.265625 770.824219 C 173.078125 770.648438 171.898438 770.441406 170.722656 770.207031 C 169.542969 769.972656 168.375 769.710938 167.210938 769.421875 C 166.046875 769.128906 164.890625 768.808594 163.742188 768.460938 C 162.59375 768.113281 161.453125 767.734375 160.324219 767.332031 C 159.195312 766.925781 158.074219 766.496094 156.964844 766.035156 C 155.859375 765.578125 154.761719 765.089844 153.675781 764.578125 C 152.589844 764.066406 151.519531 763.523438 150.460938 762.960938 C 149.402344 762.394531 148.359375 761.804688 147.328125 761.1875 C 146.300781 760.570312 145.289062 759.925781 144.289062 759.261719 C 143.292969 758.59375 142.3125 757.902344 141.347656 757.1875 C 140.382812 756.472656 139.4375 755.734375 138.511719 754.972656 C 137.582031 754.210938 136.675781 753.429688 135.785156 752.625 C 134.894531 751.816406 134.027344 750.988281 133.179688 750.140625 C 132.328125 749.292969 131.503906 748.425781 130.695312 747.535156 C 129.890625 746.644531 129.105469 745.738281 128.347656 744.808594 C 127.585938 743.882812 126.847656 742.9375 126.132812 741.972656 C 125.417969 741.007812 124.726562 740.027344 124.058594 739.03125 C 123.394531 738.03125 122.75 737.019531 122.132812 735.988281 C 121.515625 734.960938 120.925781 733.917969 120.359375 732.859375 C 119.792969 731.800781 119.253906 730.730469 118.742188 729.644531 C 118.230469 728.558594 117.742188 727.460938 117.285156 726.355469 C 116.824219 725.246094 116.394531 724.125 115.988281 722.996094 C 115.585938 721.867188 115.207031 720.726562 114.859375 719.578125 C 114.511719 718.429688 114.191406 717.273438 113.898438 716.109375 C 113.609375 714.945312 113.34375 713.777344 113.109375 712.597656 C 112.878906 711.421875 112.671875 710.238281 112.496094 709.054688 C 112.320312 707.867188 112.171875 706.675781 112.054688 705.480469 C 111.9375 704.285156 111.847656 703.089844 111.789062 701.890625 C 111.730469 700.691406 111.703125 699.492188 111.703125 698.292969 L 111.703125 446.738281 C 115.390625 448.304688 119.132812 449.734375 122.925781 451.03125 C 126.71875 452.324219 130.554688 453.484375 134.433594 454.503906 C 138.308594 455.523438 142.21875 456.402344 146.15625 457.140625 C 150.097656 457.878906 154.058594 458.472656 158.039062 458.925781 C 162.023438 459.378906 166.015625 459.6875 170.023438 459.851562 C 174.027344 460.015625 178.03125 460.035156 182.039062 459.914062 C 186.046875 459.789062 190.042969 459.523438 194.03125 459.109375 C 198.015625 458.699219 201.984375 458.144531 205.933594 457.449219 C 209.878906 456.75 213.796875 455.914062 217.683594 454.933594 C 221.570312 453.953125 225.417969 452.835938 229.222656 451.578125 C 233.03125 450.324219 236.785156 448.929688 240.492188 447.40625 C 244.199219 445.878906 247.84375 444.21875 251.429688 442.429688 C 255.019531 440.640625 258.535156 438.722656 261.984375 436.679688 C 265.433594 434.636719 268.804688 432.472656 272.097656 430.1875 C 275.390625 427.902344 278.597656 425.5 281.714844 422.984375 C 284.835938 420.46875 287.859375 417.84375 290.792969 415.105469 C 292.707031 416.890625 294.667969 418.625 296.664062 420.316406 C 298.664062 422.007812 300.699219 423.648438 302.777344 425.246094 C 304.851562 426.839844 306.960938 428.386719 309.109375 429.882812 C 311.257812 431.378906 313.441406 432.824219 315.65625 434.21875 C 317.871094 435.609375 320.117188 436.953125 322.394531 438.242188 C 324.671875 439.53125 326.980469 440.765625 329.316406 441.945312 C 331.652344 443.128906 334.015625 444.253906 336.402344 445.324219 C 338.792969 446.394531 341.203125 447.40625 343.640625 448.363281 C 346.078125 449.320312 348.535156 450.222656 351.011719 451.0625 C 353.492188 451.90625 355.988281 452.691406 358.503906 453.414062 C 361.019531 454.140625 363.546875 454.808594 366.09375 455.414062 C 368.640625 456.023438 371.199219 456.570312 373.773438 457.054688 C 376.34375 457.542969 378.925781 457.96875 381.515625 458.335938 C 384.109375 458.703125 386.707031 459.007812 389.3125 459.253906 C 391.917969 459.496094 394.53125 459.679688 397.144531 459.804688 C 399.757812 459.925781 402.375 459.988281 404.992188 459.988281 C 407.609375 459.988281 410.226562 459.925781 412.839844 459.804688 C 415.457031 459.679688 418.066406 459.496094 420.671875 459.253906 C 423.277344 459.007812 425.878906 458.703125 428.46875 458.335938 C 431.0625 457.96875 433.644531 457.542969 436.214844 457.054688 C 438.785156 456.570312 441.34375 456.023438 443.890625 455.414062 C 446.4375 454.808594 448.96875 454.140625 451.484375 453.414062 C 454 452.691406 456.496094 451.90625 458.972656 451.0625 C 461.453125 450.222656 463.910156 449.320312 466.34375 448.363281 C 468.78125 447.40625 471.195312 446.394531 473.582031 445.324219 C 475.972656 444.253906 478.332031 443.128906 480.667969 441.945312 C 483.003906 440.765625 485.3125 439.53125 487.589844 438.242188 C 489.867188 436.953125 492.117188 435.609375 494.332031 434.21875 C 496.546875 432.824219 498.726562 431.378906 500.875 429.882812 C 503.023438 428.386719 505.136719 426.839844 507.210938 425.246094 C 509.285156 423.648438 511.324219 422.007812 513.320312 420.316406 C 515.320312 418.625 517.277344 416.890625 519.195312 415.105469 C 523.027344 418.667969 527.019531 422.042969 531.167969 425.234375 C 535.316406 428.421875 539.605469 431.410156 544.035156 434.199219 C 548.464844 436.984375 553.011719 439.558594 557.683594 441.921875 C 562.351562 444.285156 567.121094 446.421875 571.988281 448.339844 C 576.859375 450.253906 581.808594 451.9375 586.835938 453.390625 C 591.863281 454.84375 596.945312 456.058594 602.085938 457.039062 C 607.226562 458.015625 612.402344 458.75 617.613281 459.246094 C 622.820312 459.738281 628.042969 459.988281 633.273438 459.992188 Z M 744.484375 269.351562 L 710.074219 97.3125 C 709.664062 95.253906 709.164062 93.214844 708.574219 91.199219 C 707.988281 89.1875 707.316406 87.199219 706.558594 85.242188 C 705.800781 83.285156 704.960938 81.363281 704.039062 79.476562 C 703.113281 77.589844 702.113281 75.75 701.03125 73.949219 C 699.953125 72.148438 698.796875 70.398438 697.5625 68.699219 C 696.332031 67 695.03125 65.355469 693.660156 63.765625 C 692.285156 62.179688 690.847656 60.652344 689.34375 59.1875 C 687.839844 57.722656 686.277344 56.324219 684.652344 54.992188 C 683.03125 53.664062 681.351562 52.402344 679.621094 51.21875 C 677.890625 50.03125 676.109375 48.921875 674.28125 47.886719 C 672.457031 46.851562 670.585938 45.898438 668.679688 45.027344 C 666.769531 44.152344 664.828125 43.363281 662.851562 42.65625 C 660.871094 41.949219 658.871094 41.332031 656.839844 40.796875 C 654.808594 40.261719 652.761719 39.816406 650.691406 39.457031 C 648.625 39.097656 646.542969 38.832031 644.453125 38.652344 C 642.359375 38.472656 640.265625 38.382812 638.164062 38.382812 L 171.828125 38.382812 C 169.726562 38.382812 167.632812 38.472656 165.539062 38.652344 C 163.449219 38.832031 161.367188 39.097656 159.300781 39.457031 C 157.230469 39.816406 155.183594 40.261719 153.152344 40.796875 C 151.121094 41.332031 149.117188 41.953125 147.140625 42.65625 C 145.164062 43.363281 143.21875 44.15625 141.3125 45.027344 C 139.402344 45.902344 137.535156 46.855469 135.707031 47.890625 C 133.878906 48.921875 132.101562 50.03125 130.367188 51.21875 C 128.636719 52.40625 126.957031 53.664062 125.335938 54.996094 C 123.710938 56.328125 122.148438 57.726562 120.644531 59.191406 C 119.140625 60.65625 117.703125 62.183594 116.328125 63.769531 C 114.957031 65.359375 113.65625 67.003906 112.421875 68.703125 C 111.191406 70.40625 110.035156 72.15625 108.957031 73.957031 C 107.875 75.753906 106.871094 77.597656 105.949219 79.484375 C 105.027344 81.371094 104.1875 83.292969 103.429688 85.25 C 102.671875 87.207031 102 89.195312 101.414062 91.210938 C 100.828125 93.226562 100.328125 95.265625 99.914062 97.324219 L 65.507812 269.351562 C 65.128906 271.246094 64.796875 273.152344 64.515625 275.0625 C 64.234375 276.976562 64 278.894531 63.816406 280.820312 C 63.632812 282.746094 63.496094 284.671875 63.414062 286.605469 C 63.328125 288.535156 63.292969 290.46875 63.304688 292.402344 C 63.316406 294.335938 63.382812 296.265625 63.492188 298.195312 C 63.605469 300.125 63.765625 302.050781 63.976562 303.972656 C 64.1875 305.894531 64.449219 307.8125 64.757812 309.71875 C 65.066406 311.628906 65.421875 313.527344 65.828125 315.417969 C 66.234375 317.308594 66.6875 319.1875 67.191406 321.054688 C 67.691406 322.921875 68.242188 324.773438 68.839844 326.613281 C 69.4375 328.453125 70.078125 330.273438 70.769531 332.082031 C 71.457031 333.886719 72.195312 335.675781 72.976562 337.441406 C 73.757812 339.210938 74.582031 340.957031 75.453125 342.683594 C 76.324219 344.410156 77.238281 346.113281 78.195312 347.792969 C 79.15625 349.472656 80.15625 351.125 81.199219 352.753906 C 82.238281 354.382812 83.324219 355.984375 84.449219 357.558594 C 85.570312 359.128906 86.734375 360.671875 87.9375 362.1875 C 89.140625 363.699219 90.382812 365.179688 91.664062 366.632812 C 92.941406 368.082031 94.257812 369.496094 95.609375 370.878906 C 96.960938 372.261719 98.347656 373.609375 99.765625 374.921875 C 101.1875 376.234375 102.640625 377.507812 104.125 378.746094 C 105.609375 379.980469 107.125 381.179688 108.671875 382.339844 C 110.21875 383.5 111.796875 384.621094 113.398438 385.699219 C 115.003906 386.777344 116.636719 387.816406 118.292969 388.8125 C 119.949219 389.808594 121.632812 390.761719 123.335938 391.671875 C 125.042969 392.578125 126.769531 393.445312 128.519531 394.265625 C 130.269531 395.089844 132.042969 395.863281 133.832031 396.59375 C 135.621094 397.328125 137.429688 398.011719 139.253906 398.648438 C 141.078125 399.289062 142.917969 399.878906 144.773438 400.421875 C 146.628906 400.96875 148.496094 401.464844 150.378906 401.914062 C 152.257812 402.363281 154.148438 402.761719 156.050781 403.113281 C 157.949219 403.46875 159.859375 403.769531 161.777344 404.023438 C 163.691406 404.277344 165.613281 404.484375 167.542969 404.640625 C 169.46875 404.796875 171.398438 404.902344 173.332031 404.960938 C 175.265625 405.019531 177.195312 405.027344 179.128906 404.984375 C 181.0625 404.945312 182.992188 404.851562 184.921875 404.710938 C 186.851562 404.574219 188.773438 404.382812 190.691406 404.144531 C 192.609375 403.90625 194.523438 403.617188 196.425781 403.28125 C 198.328125 402.945312 200.222656 402.5625 202.109375 402.128906 C 203.992188 401.695312 205.863281 401.214844 207.722656 400.683594 C 209.582031 400.15625 211.429688 399.578125 213.257812 398.957031 C 215.089844 398.332031 216.902344 397.664062 218.699219 396.949219 C 220.492188 396.230469 222.269531 395.46875 224.027344 394.664062 C 225.785156 393.855469 227.519531 393.003906 229.234375 392.109375 C 230.945312 391.214844 232.636719 390.273438 234.300781 389.292969 C 235.964844 388.3125 237.605469 387.285156 239.21875 386.222656 C 240.832031 385.15625 242.417969 384.046875 243.972656 382.902344 C 245.527344 381.753906 247.054688 380.570312 248.550781 379.34375 C 250.046875 378.117188 251.511719 376.855469 252.941406 375.554688 C 254.371094 374.257812 255.769531 372.921875 257.132812 371.550781 C 258.496094 370.179688 259.824219 368.773438 261.113281 367.332031 C 262.40625 365.894531 263.65625 364.421875 264.875 362.917969 C 266.089844 361.417969 267.265625 359.882812 268.402344 358.320312 C 269.539062 356.757812 270.636719 355.164062 271.691406 353.546875 C 272.75 351.925781 273.761719 350.28125 274.734375 348.609375 C 275.707031 346.9375 276.636719 345.242188 277.519531 343.523438 C 278.40625 341.804688 279.246094 340.0625 280.042969 338.300781 C 280.835938 336.539062 281.589844 334.757812 282.292969 332.957031 C 282.996094 331.15625 283.65625 329.339844 284.269531 327.507812 C 284.878906 325.671875 285.445312 323.824219 285.960938 321.960938 C 286.480469 320.097656 286.949219 318.222656 287.371094 316.335938 C 287.792969 314.449219 288.164062 312.554688 288.488281 310.648438 C 288.816406 308.742188 289.089844 306.828125 289.316406 304.910156 C 289.542969 302.988281 289.722656 301.0625 289.847656 299.136719 L 291.433594 299.136719 C 291.546875 300.902344 291.699219 302.667969 291.894531 304.433594 C 292.089844 306.195312 292.324219 307.949219 292.601562 309.699219 C 292.882812 311.453125 293.199219 313.195312 293.558594 314.929688 C 293.917969 316.667969 294.320312 318.394531 294.761719 320.109375 C 295.203125 321.828125 295.683594 323.53125 296.203125 325.226562 C 296.726562 326.921875 297.289062 328.601562 297.886719 330.269531 C 298.488281 331.9375 299.128906 333.589844 299.804688 335.230469 C 300.484375 336.867188 301.199219 338.488281 301.953125 340.089844 C 302.710938 341.695312 303.5 343.28125 304.332031 344.847656 C 305.160156 346.414062 306.023438 347.960938 306.925781 349.488281 C 307.828125 351.011719 308.765625 352.515625 309.738281 354 C 310.710938 355.480469 311.71875 356.941406 312.761719 358.375 C 313.800781 359.808594 314.875 361.21875 315.984375 362.601562 C 317.089844 363.988281 318.230469 365.34375 319.402344 366.675781 C 320.574219 368.003906 321.777344 369.308594 323.007812 370.582031 C 324.242188 371.855469 325.503906 373.097656 326.796875 374.3125 C 328.085938 375.527344 329.40625 376.710938 330.753906 377.863281 C 332.097656 379.015625 333.472656 380.136719 334.871094 381.222656 C 336.273438 382.3125 337.695312 383.367188 339.144531 384.386719 C 340.59375 385.40625 342.066406 386.394531 343.5625 387.34375 C 345.058594 388.296875 346.578125 389.210938 348.117188 390.089844 C 349.65625 390.972656 351.214844 391.816406 352.792969 392.621094 C 354.371094 393.429688 355.96875 394.199219 357.582031 394.929688 C 359.195312 395.660156 360.828125 396.355469 362.476562 397.007812 C 364.121094 397.664062 365.785156 398.277344 367.460938 398.855469 C 369.136719 399.433594 370.824219 399.96875 372.527344 400.464844 C 374.230469 400.960938 375.941406 401.417969 377.664062 401.835938 C 379.386719 402.253906 381.121094 402.628906 382.859375 402.964844 C 384.601562 403.296875 386.347656 403.59375 388.101562 403.84375 C 389.859375 404.097656 391.617188 404.308594 393.382812 404.480469 C 395.144531 404.648438 396.914062 404.777344 398.683594 404.863281 C 400.457031 404.949219 402.226562 404.996094 404 405 L 405.992188 405 C 407.765625 404.996094 409.539062 404.949219 411.308594 404.863281 C 413.078125 404.777344 414.84375 404.648438 416.609375 404.476562 C 418.375 404.308594 420.132812 404.097656 421.886719 403.84375 C 423.640625 403.589844 425.390625 403.296875 427.128906 402.960938 C 428.871094 402.625 430.601562 402.25 432.324219 401.832031 C 434.046875 401.417969 435.757812 400.960938 437.460938 400.464844 C 439.164062 399.964844 440.851562 399.429688 442.527344 398.851562 C 444.203125 398.277344 445.863281 397.660156 447.511719 397.003906 C 449.160156 396.351562 450.789062 395.65625 452.402344 394.925781 C 454.019531 394.195312 455.613281 393.425781 457.191406 392.617188 C 458.769531 391.8125 460.328125 390.96875 461.867188 390.089844 C 463.40625 389.207031 464.921875 388.292969 466.417969 387.34375 C 467.914062 386.390625 469.386719 385.40625 470.835938 384.382812 C 472.285156 383.363281 473.710938 382.308594 475.109375 381.222656 C 476.507812 380.132812 477.882812 379.015625 479.230469 377.863281 C 480.574219 376.710938 481.894531 375.527344 483.183594 374.3125 C 484.476562 373.097656 485.738281 371.855469 486.972656 370.578125 C 488.203125 369.304688 489.40625 368.003906 490.578125 366.675781 C 491.75 365.34375 492.886719 363.988281 493.996094 362.601562 C 495.101562 361.21875 496.175781 359.808594 497.21875 358.375 C 498.257812 356.941406 499.265625 355.484375 500.238281 354 C 501.210938 352.519531 502.148438 351.015625 503.050781 349.488281 C 503.953125 347.964844 504.816406 346.417969 505.648438 344.851562 C 506.476562 343.285156 507.269531 341.699219 508.023438 340.09375 C 508.777344 338.492188 509.492188 336.871094 510.171875 335.234375 C 510.851562 333.597656 511.488281 331.945312 512.089844 330.277344 C 512.691406 328.609375 513.25 326.925781 513.773438 325.234375 C 514.292969 323.539062 514.773438 321.835938 515.214844 320.117188 C 515.65625 318.402344 516.058594 316.675781 516.417969 314.9375 C 516.777344 313.203125 517.097656 311.460938 517.375 309.710938 C 517.652344 307.960938 517.890625 306.203125 518.085938 304.441406 C 518.28125 302.679688 518.433594 300.914062 518.546875 299.144531 L 520.128906 299.144531 C 520.261719 301.074219 520.4375 302.996094 520.667969 304.914062 C 520.898438 306.835938 521.175781 308.746094 521.5 310.648438 C 521.828125 312.554688 522.203125 314.449219 522.625 316.335938 C 523.046875 318.21875 523.519531 320.09375 524.039062 321.953125 C 524.558594 323.816406 525.121094 325.660156 525.734375 327.492188 C 526.347656 329.324219 527.007812 331.140625 527.714844 332.941406 C 528.421875 334.738281 529.171875 336.515625 529.96875 338.277344 C 530.765625 340.039062 531.609375 341.777344 532.496094 343.492188 C 533.378906 345.210938 534.308594 346.902344 535.28125 348.574219 C 536.253906 350.242188 537.269531 351.886719 538.324219 353.503906 C 539.382812 355.121094 540.480469 356.710938 541.617188 358.273438 C 542.753906 359.835938 543.933594 361.367188 545.148438 362.867188 C 546.363281 364.367188 547.617188 365.839844 548.910156 367.273438 C 550.199219 368.710938 551.527344 370.117188 552.890625 371.484375 C 554.253906 372.855469 555.648438 374.1875 557.082031 375.488281 C 558.511719 376.785156 559.976562 378.046875 561.46875 379.269531 C 562.964844 380.492188 564.492188 381.675781 566.046875 382.824219 C 567.605469 383.96875 569.1875 385.074219 570.800781 386.136719 C 572.414062 387.203125 574.050781 388.222656 575.714844 389.203125 C 577.382812 390.183594 579.070312 391.121094 580.78125 392.015625 C 582.496094 392.910156 584.230469 393.761719 585.984375 394.566406 C 587.742188 395.371094 589.515625 396.132812 591.3125 396.847656 C 593.109375 397.5625 594.917969 398.230469 596.75 398.851562 C 598.578125 399.476562 600.421875 400.050781 602.28125 400.578125 C 604.140625 401.105469 606.011719 401.585938 607.894531 402.019531 C 609.777344 402.453125 611.667969 402.835938 613.570312 403.171875 C 615.472656 403.507812 617.382812 403.792969 619.300781 404.03125 C 621.21875 404.269531 623.140625 404.457031 625.070312 404.597656 C 626.996094 404.738281 628.925781 404.828125 630.855469 404.871094 C 632.789062 404.910156 634.71875 404.902344 636.652344 404.84375 C 638.582031 404.789062 640.511719 404.679688 642.4375 404.523438 C 644.363281 404.367188 646.28125 404.164062 648.199219 403.910156 C 650.113281 403.652344 652.019531 403.351562 653.921875 403 C 655.820312 402.648438 657.710938 402.246094 659.589844 401.796875 C 661.46875 401.351562 663.335938 400.855469 665.191406 400.308594 C 667.042969 399.765625 668.882812 399.175781 670.707031 398.539062 C 672.53125 397.898438 674.335938 397.214844 676.125 396.484375 C 677.914062 395.753906 679.683594 394.980469 681.433594 394.160156 C 683.183594 393.339844 684.910156 392.472656 686.613281 391.566406 C 688.320312 390.65625 690 389.703125 691.65625 388.710938 C 693.3125 387.714844 694.941406 386.679688 696.546875 385.601562 C 698.148438 384.523438 699.722656 383.402344 701.269531 382.246094 C 702.816406 381.085938 704.332031 379.890625 705.816406 378.652344 C 707.300781 377.417969 708.753906 376.144531 710.171875 374.832031 C 711.59375 373.523438 712.980469 372.175781 714.332031 370.796875 C 715.679688 369.414062 716.996094 368 718.273438 366.550781 C 719.554688 365.105469 720.796875 363.625 722 362.113281 C 723.203125 360.601562 724.363281 359.058594 725.488281 357.488281 C 726.613281 355.914062 727.699219 354.316406 728.738281 352.691406 C 729.78125 351.0625 730.78125 349.410156 731.742188 347.734375 C 732.699219 346.054688 733.613281 344.355469 734.484375 342.628906 C 735.355469 340.90625 736.183594 339.160156 736.964844 337.394531 C 737.746094 335.625 738.484375 333.839844 739.175781 332.035156 C 739.863281 330.230469 740.507812 328.410156 741.105469 326.574219 C 741.703125 324.738281 742.253906 322.886719 742.757812 321.019531 C 743.261719 319.152344 743.714844 317.277344 744.125 315.386719 C 744.53125 313.5 744.890625 311.601562 745.199219 309.695312 C 745.507812 307.789062 745.769531 305.875 745.980469 303.953125 C 746.195312 302.03125 746.359375 300.109375 746.472656 298.179688 C 746.585938 296.25 746.648438 294.320312 746.664062 292.386719 C 746.679688 290.457031 746.644531 288.523438 746.5625 286.59375 C 746.480469 284.664062 746.347656 282.738281 746.164062 280.8125 C 745.980469 278.890625 745.75 276.972656 745.472656 275.0625 C 745.191406 273.148438 744.863281 271.246094 744.484375 269.351562 Z M 744.484375 269.351562 " fill-opacity="1" fill-rule="nonzero"/></g><path fill="#e45f2b" d="M 463.570312 136.714844 C 455.269531 137.496094 447.761719 130.113281 452.132812 121.769531 C 454.351562 117.539062 459.894531 115.039062 463.664062 112.433594 L 504.195312 84.984375 C 508.46875 82.085938 512.890625 78.183594 517.804688 76.539062 C 525.441406 75.65625 532.964844 83.445312 529.425781 91.058594 C 527.0625 96.136719 520.125 99.191406 515.710938 102.148438 L 477.753906 128.011719 C 473.304688 131.09375 468.71875 134.96875 463.570312 136.714844 Z M 463.570312 136.714844 " fill-opacity="1" fill-rule="nonzero"/><g clip-path="url(#1bc108496e)"><path fill="#e45f2b" d="M 229.136719 301.613281 C 215.382812 303.925781 199.296875 312.992188 185.757812 305.898438 C 170.234375 297.761719 156.902344 255.515625 165.296875 239.9375 C 170.917969 229.503906 180.09375 227.589844 190.394531 223.804688 C 252.496094 200.984375 327.261719 143.183594 368.105469 91.796875 C 370.648438 88.597656 373.820312 82.304688 377.929688 81.0625 C 386.117188 80.859375 386.886719 92.199219 388.726562 98.152344 C 391.5625 107.355469 394.390625 116.558594 397.410156 125.703125 L 448.789062 283.476562 C 450.40625 288.515625 456.175781 297.683594 449.140625 300.691406 C 444.078125 299.648438 439.335938 296.847656 434.492188 295.066406 C 392.222656 279.5 329.941406 280.917969 286.378906 287.269531 C 289.886719 295.746094 294.003906 304.089844 297.890625 312.402344 L 317.074219 353.621094 C 319 357.804688 325.246094 369.609375 325.613281 373.253906 C 326.929688 386.277344 298.148438 392.289062 287.21875 393.007812 C 269.628906 393.109375 267.34375 378.726562 260.066406 364.304688 L 239.699219 323.25 C 236.195312 316.066406 232.976562 308.609375 229.136719 301.613281 Z M 229.136719 301.613281 " fill-opacity="1" fill-rule="nonzero"/></g><path fill="#e45f2b" d="M 480.90625 185.132812 C 472.316406 185.253906 466.664062 175.644531 472.425781 168.507812 C 475.960938 164.128906 483.230469 163.839844 488.335938 162.898438 L 505.527344 159.664062 C 518.355469 157.160156 532.148438 153.601562 545.050781 152 C 553.335938 151.136719 558.429688 162.242188 553.375 168.570312 C 549.941406 172.871094 542.519531 173.339844 537.527344 174.339844 L 496.320312 182.4375 C 491.226562 183.414062 486.0625 184.636719 480.90625 185.132812 Z M 480.90625 185.132812 " fill-opacity="1" fill-rule="nonzero"/><path fill="#e45f2b" d="M 545.734375 250.746094 C 539.535156 251.050781 533.371094 249.277344 527.335938 248.128906 L 503.214844 243.523438 C 497.917969 242.507812 481.390625 239.945312 477.167969 238.019531 C 468.011719 233.839844 470.410156 221.476562 479.714844 218.570312 C 486.730469 217.777344 496.652344 221.199219 503.714844 222.464844 L 529.816406 227.289062 C 535.910156 228.453125 543.738281 228.9375 549.210938 232.089844 C 557.496094 236.855469 554.351562 248.757812 545.734375 250.746094 Z M 545.734375 250.746094 " fill-opacity="1" fill-rule="nonzero"/><path stroke-linecap="butt" transform="matrix(-0.577531, -0.478496, 0.478496, -0.577531, 393.079553, 434.645686)" fill="none" stroke-linejoin="miter" d="M 6.924803 66.169669 C 70.176239 -10.057236 144.57797 -10.056137 230.134005 66.169642 " stroke="#5dbecd" stroke-width="18" stroke-opacity="1" stroke-miterlimit="4"/><path stroke-linecap="butt" transform="matrix(-0.538318, 0.522219, -0.522219, -0.538318, 545.45604, 310.601138)" fill="none" stroke-linejoin="miter" d="M 5.376468 53.099821 C 84.281968 -5.700671 153.413313 -5.70036 212.770504 53.100755 " stroke="#5dbecd" stroke-width="18" stroke-opacity="1" stroke-miterlimit="4"/></svg>