<svg xmlns="http://www.w3.org/2000/svg" xmlns:xlink="http://www.w3.org/1999/xlink" width="1080" zoomAndPan="magnify" viewBox="0 0 810 809.999993" height="1080" preserveAspectRatio="xMidYMid meet" version="1.0"><defs><clipPath id="fa17ddad3e"><path d="M 63 38.378906 L 747 38.378906 L 747 771.878906 L 63 771.878906 Z M 63 38.378906 " clip-rule="nonzero"/></clipPath><clipPath id="fc26074d50"><path d="M 162 81 L 453 81 L 453 392.921875 L 162 392.921875 Z M 162 81 " clip-rule="nonzero"/></clipPath></defs><g clip-path="url(#fa17ddad3e)"><path fill="#000000" d="M 633.421875 460.140625 C 644.59375 460.113281 655.652344 458.984375 666.597656 456.753906 C 677.542969 454.519531 688.164062 451.230469 698.453125 446.882812 L 698.453125 698.527344 C 698.453125 699.726562 698.421875 700.925781 698.363281 702.125 C 698.304688 703.324219 698.21875 704.519531 698.101562 705.714844 C 697.980469 706.910156 697.835938 708.101562 697.660156 709.289062 C 697.484375 710.476562 697.277344 711.660156 697.042969 712.835938 C 696.808594 714.011719 696.546875 715.183594 696.253906 716.347656 C 695.964844 717.511719 695.644531 718.667969 695.292969 719.816406 C 694.945312 720.96875 694.570312 722.105469 694.164062 723.238281 C 693.761719 724.367188 693.328125 725.488281 692.871094 726.59375 C 692.410156 727.703125 691.925781 728.800781 691.410156 729.886719 C 690.898438 730.972656 690.359375 732.042969 689.792969 733.101562 C 689.226562 734.160156 688.636719 735.207031 688.019531 736.234375 C 687.402344 737.265625 686.757812 738.277344 686.09375 739.277344 C 685.425781 740.273438 684.734375 741.257812 684.019531 742.21875 C 683.304688 743.183594 682.566406 744.128906 681.804688 745.058594 C 681.042969 745.984375 680.261719 746.894531 679.453125 747.785156 C 678.648438 748.675781 677.820312 749.542969 676.972656 750.390625 C 676.121094 751.242188 675.253906 752.066406 674.363281 752.875 C 673.476562 753.679688 672.566406 754.464844 671.636719 755.226562 C 670.710938 755.988281 669.765625 756.726562 668.800781 757.441406 C 667.835938 758.15625 666.855469 758.847656 665.859375 759.515625 C 664.859375 760.179688 663.84375 760.824219 662.816406 761.441406 C 661.785156 762.058594 660.742188 762.648438 659.683594 763.214844 C 658.625 763.78125 657.554688 764.320312 656.46875 764.832031 C 655.382812 765.347656 654.285156 765.832031 653.175781 766.292969 C 652.070312 766.75 650.949219 767.183594 649.820312 767.585938 C 648.6875 767.992188 647.550781 768.367188 646.402344 768.71875 C 645.253906 769.066406 644.097656 769.386719 642.929688 769.675781 C 641.765625 769.96875 640.597656 770.230469 639.417969 770.464844 C 638.242188 770.699219 637.058594 770.90625 635.871094 771.082031 C 634.683594 771.257812 633.492188 771.40625 632.300781 771.523438 C 631.105469 771.640625 629.910156 771.726562 628.710938 771.785156 C 627.511719 771.847656 626.3125 771.875 625.109375 771.875 L 515.097656 771.875 C 513.898438 771.875 512.699219 771.816406 511.503906 771.699219 C 510.308594 771.582031 509.121094 771.40625 507.945312 771.171875 C 506.765625 770.9375 505.601562 770.644531 504.453125 770.296875 C 503.304688 769.949219 502.175781 769.542969 501.0625 769.082031 C 499.953125 768.625 498.871094 768.109375 497.8125 767.542969 C 496.75 766.980469 495.722656 766.363281 494.722656 765.695312 C 493.726562 765.027344 492.761719 764.3125 491.832031 763.550781 C 490.90625 762.789062 490.015625 761.984375 489.167969 761.132812 C 488.316406 760.285156 487.511719 759.394531 486.75 758.46875 C 485.988281 757.539062 485.273438 756.574219 484.605469 755.574219 C 483.941406 754.578125 483.324219 753.546875 482.757812 752.488281 C 482.191406 751.429688 481.675781 750.34375 481.21875 749.234375 C 480.757812 748.125 480.355469 746.996094 480.003906 745.847656 C 479.65625 744.699219 479.367188 743.535156 479.132812 742.355469 C 478.898438 741.175781 478.722656 739.992188 478.601562 738.796875 C 478.484375 737.601562 478.425781 736.402344 478.425781 735.199219 L 478.425781 625.175781 C 478.425781 623.847656 478.390625 622.519531 478.316406 621.191406 C 478.246094 619.863281 478.136719 618.539062 477.992188 617.21875 C 477.847656 615.894531 477.667969 614.578125 477.449219 613.265625 C 477.234375 611.957031 476.984375 610.648438 476.695312 609.351562 C 476.410156 608.054688 476.085938 606.765625 475.730469 605.484375 C 475.375 604.203125 474.980469 602.933594 474.554688 601.671875 C 474.128906 600.414062 473.667969 599.167969 473.175781 597.933594 C 472.683594 596.699219 472.15625 595.476562 471.59375 594.273438 C 471.035156 593.066406 470.441406 591.878906 469.816406 590.703125 C 469.191406 589.53125 468.539062 588.375 467.847656 587.238281 C 467.164062 586.097656 466.445312 584.980469 465.695312 583.882812 C 464.949219 582.78125 464.171875 581.703125 463.363281 580.648438 C 462.554688 579.589844 461.722656 578.558594 460.859375 577.546875 C 459.996094 576.535156 459.105469 575.546875 458.1875 574.585938 C 457.273438 573.621094 456.328125 572.683594 455.363281 571.773438 C 454.394531 570.859375 453.402344 569.976562 452.386719 569.117188 C 451.371094 568.261719 450.332031 567.429688 449.273438 566.628906 C 448.210938 565.828125 447.128906 565.054688 446.027344 564.3125 C 444.925781 563.570312 443.804688 562.859375 442.660156 562.175781 C 441.519531 561.496094 440.363281 560.84375 439.183594 560.226562 C 438.007812 559.609375 436.816406 559.023438 435.605469 558.46875 C 434.398438 557.914062 433.175781 557.394531 431.9375 556.90625 C 430.703125 556.417969 429.453125 555.964844 428.191406 555.546875 C 426.929688 555.125 425.65625 554.742188 424.375 554.390625 C 423.09375 554.039062 421.800781 553.726562 420.503906 553.445312 C 419.203125 553.164062 417.898438 552.921875 416.582031 552.710938 C 415.269531 552.5 413.953125 552.328125 412.632812 552.191406 C 411.308594 552.054688 409.984375 551.953125 408.65625 551.886719 C 407.328125 551.820312 406 551.789062 404.671875 551.796875 C 403.339844 551.804688 402.011719 551.847656 400.6875 551.925781 C 399.359375 552.003906 398.035156 552.117188 396.714844 552.269531 C 395.394531 552.417969 394.078125 552.605469 392.765625 552.828125 C 390.597656 553.265625 388.457031 553.796875 386.335938 554.417969 C 384.214844 555.042969 382.125 555.757812 380.066406 556.5625 C 378.003906 557.371094 375.984375 558.265625 374.003906 559.246094 C 372.023438 560.226562 370.089844 561.292969 368.203125 562.445312 C 366.3125 563.597656 364.480469 564.828125 362.699219 566.136719 C 360.917969 567.449219 359.199219 568.835938 357.539062 570.296875 C 355.878906 571.753906 354.285156 573.285156 352.761719 574.886719 C 351.234375 576.484375 349.78125 578.148438 348.398438 579.875 C 347.019531 581.601562 345.714844 583.382812 344.488281 585.222656 C 343.261719 587.0625 342.117188 588.953125 341.058594 590.894531 C 339.996094 592.832031 339.023438 594.816406 338.132812 596.839844 C 337.246094 598.867188 336.445312 600.925781 335.738281 603.019531 C 335.03125 605.113281 334.414062 607.234375 333.890625 609.382812 C 333.367188 611.53125 332.9375 613.699219 332.601562 615.882812 C 332.265625 618.070312 332.027344 620.265625 331.882812 622.472656 C 331.742188 624.679688 331.695312 626.886719 331.742188 629.097656 L 331.742188 735.199219 C 331.742188 736.402344 331.683594 737.601562 331.566406 738.796875 C 331.449219 739.992188 331.273438 741.175781 331.039062 742.355469 C 330.804688 743.535156 330.511719 744.699219 330.164062 745.847656 C 329.816406 746.996094 329.410156 748.125 328.949219 749.234375 C 328.492188 750.34375 327.980469 751.429688 327.414062 752.488281 C 326.847656 753.546875 326.230469 754.578125 325.5625 755.574219 C 324.894531 756.574219 324.179688 757.539062 323.417969 758.46875 C 322.65625 759.394531 321.851562 760.285156 321 761.132812 C 320.152344 761.984375 319.265625 762.789062 318.335938 763.550781 C 317.40625 764.3125 316.445312 765.027344 315.445312 765.695312 C 314.445312 766.363281 313.417969 766.980469 312.359375 767.542969 C 311.296875 768.109375 310.214844 768.625 309.105469 769.082031 C 307.996094 769.542969 306.867188 769.949219 305.714844 770.296875 C 304.566406 770.644531 303.402344 770.9375 302.226562 771.171875 C 301.046875 771.40625 299.859375 771.582031 298.664062 771.699219 C 297.46875 771.816406 296.273438 771.875 295.070312 771.875 L 185.058594 771.875 C 183.859375 771.875 182.660156 771.847656 181.460938 771.785156 C 180.261719 771.726562 179.0625 771.640625 177.871094 771.523438 C 176.675781 771.40625 175.484375 771.257812 174.296875 771.082031 C 173.109375 770.90625 171.925781 770.699219 170.75 770.464844 C 169.574219 770.230469 168.402344 769.96875 167.238281 769.675781 C 166.074219 769.386719 164.917969 769.066406 163.769531 768.71875 C 162.621094 768.367188 161.480469 767.992188 160.351562 767.585938 C 159.21875 767.183594 158.101562 766.75 156.992188 766.292969 C 155.882812 765.832031 154.785156 765.347656 153.699219 764.832031 C 152.617188 764.320312 151.542969 763.78125 150.484375 763.214844 C 149.425781 762.648438 148.382812 762.058594 147.351562 761.441406 C 146.324219 760.824219 145.308594 760.179688 144.3125 759.515625 C 143.3125 758.847656 142.332031 758.15625 141.367188 757.441406 C 140.40625 756.726562 139.457031 755.988281 138.53125 755.226562 C 137.601562 754.464844 136.695312 753.679688 135.804688 752.875 C 134.914062 752.066406 134.046875 751.242188 133.199219 750.390625 C 132.347656 749.542969 131.519531 748.675781 130.714844 747.785156 C 129.910156 746.894531 129.125 745.984375 128.363281 745.058594 C 127.601562 744.128906 126.863281 743.183594 126.148438 742.21875 C 125.433594 741.257812 124.742188 740.273438 124.078125 739.277344 C 123.410156 738.277344 122.769531 737.265625 122.152344 736.234375 C 121.535156 735.207031 120.941406 734.160156 120.375 733.101562 C 119.808594 732.042969 119.269531 730.972656 118.757812 729.886719 C 118.246094 728.800781 117.757812 727.703125 117.300781 726.59375 C 116.839844 725.488281 116.40625 724.367188 116.003906 723.238281 C 115.597656 722.105469 115.222656 720.96875 114.875 719.816406 C 114.527344 718.667969 114.207031 717.511719 113.914062 716.347656 C 113.621094 715.183594 113.359375 714.011719 113.125 712.835938 C 112.890625 711.660156 112.6875 710.476562 112.511719 709.289062 C 112.332031 708.101562 112.1875 706.910156 112.070312 705.714844 C 111.953125 704.519531 111.863281 703.324219 111.804688 702.125 C 111.746094 700.925781 111.714844 699.726562 111.714844 698.527344 L 111.714844 446.882812 C 115.40625 448.449219 119.148438 449.878906 122.945312 451.175781 C 126.738281 452.472656 130.574219 453.628906 134.453125 454.648438 C 138.328125 455.667969 142.238281 456.546875 146.179688 457.285156 C 150.121094 458.023438 154.082031 458.621094 158.066406 459.074219 C 162.050781 459.527344 166.042969 459.835938 170.050781 460 C 174.058594 460.164062 178.0625 460.183594 182.070312 460.0625 C 186.078125 459.9375 190.078125 459.671875 194.066406 459.257812 C 198.054688 458.847656 202.019531 458.292969 205.96875 457.59375 C 209.917969 456.898438 213.835938 456.058594 217.722656 455.078125 C 221.613281 454.101562 225.460938 452.980469 229.265625 451.726562 C 233.074219 450.46875 236.832031 449.074219 240.539062 447.546875 C 244.246094 446.019531 247.894531 444.363281 251.480469 442.570312 C 255.066406 440.78125 258.585938 438.863281 262.035156 436.820312 C 265.484375 434.777344 268.855469 432.613281 272.152344 430.324219 C 275.445312 428.039062 278.652344 425.636719 281.773438 423.121094 C 284.894531 420.601562 287.917969 417.976562 290.851562 415.238281 C 292.769531 417.023438 294.726562 418.757812 296.726562 420.449219 C 298.722656 422.140625 300.761719 423.785156 302.835938 425.378906 C 304.914062 426.976562 307.027344 428.523438 309.175781 430.019531 C 311.324219 431.515625 313.503906 432.960938 315.71875 434.355469 C 317.9375 435.75 320.183594 437.09375 322.460938 438.382812 C 324.742188 439.671875 327.050781 440.90625 329.386719 442.089844 C 331.722656 443.269531 334.085938 444.394531 336.472656 445.464844 C 338.863281 446.535156 341.277344 447.550781 343.714844 448.507812 C 346.152344 449.464844 348.609375 450.367188 351.085938 451.210938 C 353.566406 452.050781 356.0625 452.835938 358.578125 453.5625 C 361.09375 454.289062 363.625 454.953125 366.171875 455.5625 C 368.71875 456.167969 371.277344 456.714844 373.851562 457.203125 C 376.425781 457.691406 379.007812 458.117188 381.597656 458.484375 C 384.191406 458.851562 386.789062 459.15625 389.398438 459.402344 C 392.003906 459.644531 394.617188 459.828125 397.230469 459.953125 C 399.847656 460.074219 402.460938 460.136719 405.082031 460.136719 C 407.699219 460.136719 410.316406 460.074219 412.929688 459.953125 C 415.546875 459.828125 418.15625 459.644531 420.765625 459.402344 C 423.371094 459.15625 425.96875 458.851562 428.5625 458.484375 C 431.15625 458.117188 433.738281 457.691406 436.308594 457.203125 C 438.882812 456.714844 441.441406 456.167969 443.988281 455.5625 C 446.535156 454.953125 449.066406 454.289062 451.582031 453.5625 C 454.097656 452.835938 456.597656 452.050781 459.074219 451.210938 C 461.554688 450.367188 464.011719 449.464844 466.449219 448.507812 C 468.886719 447.550781 471.296875 446.535156 473.6875 445.464844 C 476.078125 444.394531 478.441406 443.269531 480.777344 442.089844 C 483.113281 440.90625 485.421875 439.671875 487.699219 438.382812 C 489.976562 437.09375 492.226562 435.75 494.441406 434.355469 C 496.65625 432.960938 498.839844 431.515625 500.988281 430.019531 C 503.136719 428.523438 505.246094 426.976562 507.324219 425.378906 C 509.398438 423.785156 511.4375 422.140625 513.4375 420.449219 C 515.433594 418.757812 517.394531 417.023438 519.3125 415.238281 C 523.144531 418.804688 527.136719 422.179688 531.289062 425.367188 C 535.4375 428.558594 539.726562 431.546875 544.15625 434.335938 C 548.585938 437.125 553.136719 439.699219 557.808594 442.0625 C 562.480469 444.425781 567.25 446.566406 572.121094 448.484375 C 576.992188 450.398438 581.941406 452.085938 586.96875 453.539062 C 591.996094 454.992188 597.082031 456.207031 602.222656 457.183594 C 607.367188 458.164062 612.542969 458.898438 617.753906 459.390625 C 622.964844 459.886719 628.1875 460.136719 633.421875 460.140625 Z M 744.660156 269.433594 L 710.238281 97.332031 C 709.828125 95.273438 709.328125 93.234375 708.738281 91.21875 C 708.152344 89.203125 707.480469 87.214844 706.722656 85.257812 C 705.964844 83.300781 705.125 81.375 704.203125 79.492188 C 703.277344 77.605469 702.277344 75.761719 701.195312 73.960938 C 700.113281 72.160156 698.957031 70.410156 697.726562 68.710938 C 696.496094 67.007812 695.191406 65.363281 693.820312 63.773438 C 692.445312 62.1875 691.007812 60.660156 689.503906 59.195312 C 688 57.726562 686.4375 56.328125 684.8125 55 C 683.1875 53.667969 681.511719 52.410156 679.777344 51.222656 C 678.046875 50.035156 676.265625 48.925781 674.4375 47.890625 C 672.609375 46.855469 670.742188 45.902344 668.832031 45.027344 C 666.921875 44.15625 664.980469 43.367188 663.003906 42.660156 C 661.027344 41.953125 659.019531 41.332031 656.992188 40.796875 C 654.960938 40.261719 652.910156 39.816406 650.839844 39.457031 C 648.773438 39.097656 646.691406 38.832031 644.601562 38.652344 C 642.507812 38.472656 640.414062 38.382812 638.3125 38.382812 L 171.855469 38.382812 C 169.757812 38.382812 167.660156 38.472656 165.566406 38.652344 C 163.476562 38.832031 161.394531 39.097656 159.324219 39.457031 C 157.257812 39.816406 155.207031 40.261719 153.175781 40.796875 C 151.144531 41.332031 149.140625 41.953125 147.164062 42.660156 C 145.1875 43.367188 143.242188 44.15625 141.332031 45.03125 C 139.421875 45.902344 137.554688 46.859375 135.726562 47.890625 C 133.898438 48.925781 132.117188 50.035156 130.386719 51.222656 C 128.652344 52.410156 126.976562 53.671875 125.351562 55 C 123.726562 56.332031 122.164062 57.730469 120.660156 59.199219 C 119.15625 60.664062 117.71875 62.191406 116.34375 63.78125 C 114.972656 65.371094 113.667969 67.015625 112.4375 68.714844 C 111.207031 70.417969 110.050781 72.167969 108.96875 73.96875 C 107.886719 75.769531 106.886719 77.613281 105.960938 79.5 C 105.039062 81.386719 104.199219 83.308594 103.441406 85.265625 C 102.683594 87.226562 102.011719 89.214844 101.425781 91.230469 C 100.835938 93.246094 100.339844 95.285156 99.925781 97.34375 L 65.511719 269.433594 C 65.132812 271.328125 64.800781 273.234375 64.519531 275.148438 C 64.234375 277.058594 64.003906 278.980469 63.820312 280.90625 C 63.632812 282.832031 63.5 284.757812 63.414062 286.691406 C 63.328125 288.625 63.292969 290.554688 63.304688 292.492188 C 63.320312 294.425781 63.382812 296.355469 63.496094 298.289062 C 63.605469 300.21875 63.769531 302.144531 63.980469 304.066406 C 64.191406 305.992188 64.449219 307.90625 64.757812 309.816406 C 65.066406 311.726562 65.425781 313.625 65.832031 315.515625 C 66.238281 317.40625 66.691406 319.285156 67.191406 321.152344 C 67.695312 323.023438 68.246094 324.875 68.84375 326.714844 C 69.4375 328.554688 70.082031 330.378906 70.773438 332.183594 C 71.460938 333.992188 72.199219 335.777344 72.980469 337.546875 C 73.761719 339.316406 74.589844 341.066406 75.457031 342.792969 C 76.328125 344.519531 77.246094 346.222656 78.203125 347.902344 C 79.160156 349.582031 80.160156 351.238281 81.203125 352.867188 C 82.246094 354.496094 83.332031 356.09375 84.453125 357.667969 C 85.578125 359.242188 86.742188 360.785156 87.945312 362.300781 C 89.152344 363.8125 90.390625 365.296875 91.671875 366.746094 C 92.949219 368.195312 94.265625 369.613281 95.617188 370.996094 C 96.96875 372.378906 98.355469 373.726562 99.777344 375.039062 C 101.199219 376.351562 102.652344 377.625 104.136719 378.863281 C 105.621094 380.101562 107.140625 381.300781 108.6875 382.460938 C 110.234375 383.621094 111.808594 384.742188 113.414062 385.820312 C 115.019531 386.902344 116.648438 387.9375 118.308594 388.933594 C 119.964844 389.929688 121.648438 390.882812 123.355469 391.792969 C 125.058594 392.703125 126.789062 393.570312 128.539062 394.390625 C 130.289062 395.214844 132.058594 395.992188 133.851562 396.722656 C 135.640625 397.453125 137.449219 398.136719 139.273438 398.777344 C 141.101562 399.414062 142.941406 400.007812 144.796875 400.550781 C 146.652344 401.09375 148.519531 401.59375 150.402344 402.042969 C 152.28125 402.488281 154.171875 402.890625 156.074219 403.242188 C 157.976562 403.59375 159.886719 403.898438 161.804688 404.152344 C 163.71875 404.40625 165.640625 404.613281 167.570312 404.769531 C 169.496094 404.925781 171.425781 405.03125 173.359375 405.089844 C 175.292969 405.148438 177.226562 405.15625 179.160156 405.113281 C 181.09375 405.074219 183.023438 404.980469 184.953125 404.839844 C 186.882812 404.699219 188.804688 404.511719 190.726562 404.273438 C 192.644531 404.035156 194.554688 403.746094 196.460938 403.410156 C 198.367188 403.074219 200.261719 402.6875 202.144531 402.253906 C 204.03125 401.824219 205.902344 401.339844 207.761719 400.8125 C 209.621094 400.28125 211.46875 399.707031 213.296875 399.082031 C 215.128906 398.460938 216.941406 397.789062 218.738281 397.074219 C 220.535156 396.355469 222.3125 395.59375 224.070312 394.789062 C 225.828125 393.980469 227.5625 393.128906 229.277344 392.234375 C 230.988281 391.335938 232.679688 390.398438 234.34375 389.417969 C 236.011719 388.433594 237.652344 387.410156 239.265625 386.34375 C 240.878906 385.277344 242.464844 384.171875 244.019531 383.023438 C 245.578125 381.875 247.101562 380.6875 248.597656 379.464844 C 250.09375 378.238281 251.558594 376.976562 252.992188 375.675781 C 254.421875 374.375 255.820312 373.039062 257.183594 371.667969 C 258.546875 370.292969 259.875 368.890625 261.164062 367.449219 C 262.457031 366.007812 263.710938 364.539062 264.925781 363.035156 C 266.140625 361.53125 267.320312 359.996094 268.457031 358.433594 C 269.59375 356.867188 270.691406 355.277344 271.746094 353.65625 C 272.804688 352.035156 273.816406 350.390625 274.789062 348.71875 C 275.761719 347.046875 276.691406 345.351562 277.574219 343.628906 C 278.460938 341.910156 279.300781 340.167969 280.097656 338.40625 C 280.894531 336.644531 281.644531 334.863281 282.351562 333.0625 C 283.054688 331.261719 283.714844 329.441406 284.324219 327.609375 C 284.9375 325.773438 285.503906 323.925781 286.019531 322.0625 C 286.539062 320.199219 287.007812 318.324219 287.429688 316.433594 C 287.851562 314.546875 288.222656 312.648438 288.546875 310.742188 C 288.875 308.835938 289.148438 306.921875 289.375 305.003906 C 289.601562 303.082031 289.78125 301.15625 289.90625 299.226562 L 291.492188 299.226562 C 291.605469 300.996094 291.757812 302.761719 291.953125 304.523438 C 292.148438 306.289062 292.386719 308.042969 292.664062 309.796875 C 292.941406 311.546875 293.257812 313.292969 293.621094 315.027344 C 293.980469 316.765625 294.378906 318.492188 294.820312 320.207031 C 295.261719 321.925781 295.742188 323.632812 296.265625 325.328125 C 296.785156 327.023438 297.347656 328.703125 297.949219 330.371094 C 298.550781 332.042969 299.1875 333.695312 299.867188 335.332031 C 300.546875 336.972656 301.261719 338.59375 302.015625 340.199219 C 302.773438 341.800781 303.5625 343.386719 304.394531 344.957031 C 305.222656 346.523438 306.089844 348.070312 306.992188 349.597656 C 307.890625 351.125 308.828125 352.628906 309.804688 354.109375 C 310.777344 355.59375 311.78125 357.050781 312.824219 358.488281 C 313.867188 359.921875 314.941406 361.332031 316.050781 362.714844 C 317.15625 364.101562 318.296875 365.457031 319.46875 366.789062 C 320.640625 368.121094 321.84375 369.421875 323.074219 370.695312 C 324.308594 371.972656 325.570312 373.214844 326.863281 374.429688 C 328.15625 375.644531 329.472656 376.828125 330.820312 377.984375 C 332.167969 379.136719 333.542969 380.253906 334.941406 381.34375 C 336.34375 382.433594 337.769531 383.488281 339.21875 384.507812 C 340.667969 385.527344 342.140625 386.515625 343.636719 387.46875 C 345.132812 388.417969 346.648438 389.335938 348.191406 390.214844 C 349.730469 391.09375 351.289062 391.9375 352.867188 392.746094 C 354.445312 393.554688 356.042969 394.324219 357.65625 395.054688 C 359.273438 395.785156 360.90625 396.480469 362.550781 397.132812 C 364.199219 397.789062 365.863281 398.40625 367.539062 398.980469 C 369.214844 399.558594 370.90625 400.097656 372.605469 400.59375 C 374.308594 401.089844 376.023438 401.546875 377.746094 401.964844 C 379.46875 402.378906 381.203125 402.757812 382.941406 403.089844 C 384.683594 403.425781 386.433594 403.722656 388.1875 403.972656 C 389.941406 404.226562 391.703125 404.4375 393.46875 404.609375 C 395.230469 404.777344 397 404.90625 398.769531 404.992188 C 400.542969 405.078125 402.3125 405.125 404.085938 405.128906 L 406.082031 405.128906 C 407.855469 405.125 409.625 405.078125 411.398438 404.992188 C 413.167969 404.90625 414.9375 404.777344 416.699219 404.605469 C 418.464844 404.4375 420.226562 404.226562 421.980469 403.972656 C 423.734375 403.71875 425.484375 403.425781 427.222656 403.089844 C 428.964844 402.753906 430.695312 402.378906 432.417969 401.960938 C 434.144531 401.542969 435.855469 401.085938 437.558594 400.589844 C 439.257812 400.09375 440.949219 399.554688 442.625 398.980469 C 444.300781 398.402344 445.960938 397.785156 447.609375 397.132812 C 449.257812 396.476562 450.890625 395.78125 452.503906 395.050781 C 454.117188 394.320312 455.714844 393.550781 457.292969 392.742188 C 458.871094 391.9375 460.429688 391.09375 461.96875 390.210938 C 463.507812 389.332031 465.027344 388.417969 466.523438 387.464844 C 468.019531 386.511719 469.492188 385.527344 470.941406 384.503906 C 472.390625 383.484375 473.816406 382.429688 475.214844 381.34375 C 476.613281 380.253906 477.988281 379.132812 479.335938 377.980469 C 480.683594 376.828125 482 375.644531 483.292969 374.429688 C 484.585938 373.214844 485.847656 371.972656 487.078125 370.695312 C 488.3125 369.421875 489.515625 368.121094 490.6875 366.789062 C 491.859375 365.457031 492.996094 364.101562 494.105469 362.71875 C 495.214844 361.332031 496.289062 359.921875 497.328125 358.488281 C 498.371094 357.054688 499.378906 355.59375 500.351562 354.113281 C 501.324219 352.628906 502.261719 351.125 503.164062 349.597656 C 504.066406 348.074219 504.929688 346.527344 505.761719 344.960938 C 506.589844 343.390625 507.382812 341.804688 508.136719 340.203125 C 508.890625 338.597656 509.609375 336.976562 510.285156 335.339844 C 510.964844 333.699219 511.605469 332.046875 512.203125 330.378906 C 512.804688 328.710938 513.367188 327.027344 513.886719 325.335938 C 514.410156 323.640625 514.890625 321.933594 515.332031 320.214844 C 515.773438 318.5 516.171875 316.773438 516.535156 315.035156 C 516.894531 313.300781 517.210938 311.554688 517.492188 309.804688 C 517.769531 308.054688 518.003906 306.296875 518.199219 304.535156 C 518.394531 302.773438 518.550781 301.007812 518.664062 299.238281 L 520.246094 299.238281 C 520.375 301.167969 520.554688 303.089844 520.785156 305.007812 C 521.011719 306.929688 521.292969 308.839844 521.617188 310.746094 C 521.945312 312.652344 522.320312 314.546875 522.742188 316.433594 C 523.164062 318.316406 523.636719 320.191406 524.15625 322.054688 C 524.675781 323.914062 525.242188 325.761719 525.855469 327.59375 C 526.46875 329.429688 527.128906 331.242188 527.835938 333.042969 C 528.539062 334.84375 529.292969 336.621094 530.089844 338.382812 C 530.886719 340.144531 531.730469 341.882812 532.613281 343.601562 C 533.5 345.316406 534.429688 347.011719 535.402344 348.683594 C 536.375 350.351562 537.390625 351.996094 538.449219 353.613281 C 539.503906 355.234375 540.601562 356.824219 541.738281 358.386719 C 542.878906 359.945312 544.054688 361.480469 545.269531 362.980469 C 546.488281 364.484375 547.742188 365.953125 549.03125 367.390625 C 550.324219 368.828125 551.652344 370.234375 553.015625 371.601562 C 554.378906 372.972656 555.773438 374.308594 557.207031 375.605469 C 558.636719 376.90625 560.101562 378.164062 561.597656 379.390625 C 563.09375 380.613281 564.621094 381.796875 566.175781 382.945312 C 567.734375 384.089844 569.316406 385.195312 570.929688 386.257812 C 572.542969 387.324219 574.183594 388.347656 575.847656 389.328125 C 577.511719 390.308594 579.203125 391.246094 580.914062 392.140625 C 582.628906 393.035156 584.363281 393.886719 586.121094 394.691406 C 587.875 395.496094 589.652344 396.257812 591.449219 396.972656 C 593.242188 397.6875 595.054688 398.359375 596.886719 398.980469 C 598.714844 399.601562 600.558594 400.179688 602.417969 400.707031 C 604.277344 401.234375 606.148438 401.714844 608.03125 402.148438 C 609.914062 402.578125 611.808594 402.964844 613.710938 403.300781 C 615.617188 403.636719 617.527344 403.921875 619.445312 404.160156 C 621.363281 404.398438 623.285156 404.585938 625.210938 404.726562 C 627.140625 404.867188 629.070312 404.957031 631 405 C 632.933594 405.039062 634.867188 405.03125 636.796875 404.972656 C 638.730469 404.914062 640.660156 404.808594 642.585938 404.652344 C 644.511719 404.496094 646.433594 404.292969 648.347656 404.035156 C 650.261719 403.78125 652.171875 403.480469 654.070312 403.128906 C 655.972656 402.773438 657.863281 402.375 659.742188 401.925781 C 661.621094 401.476562 663.488281 400.980469 665.34375 400.4375 C 667.199219 399.894531 669.035156 399.300781 670.863281 398.664062 C 672.6875 398.027344 674.492188 397.339844 676.28125 396.609375 C 678.070312 395.878906 679.839844 395.105469 681.589844 394.285156 C 683.339844 393.464844 685.066406 392.597656 686.773438 391.6875 C 688.476562 390.78125 690.160156 389.828125 691.816406 388.832031 C 693.472656 387.835938 695.101562 386.800781 696.707031 385.722656 C 698.308594 384.644531 699.886719 383.523438 701.433594 382.367188 C 702.980469 381.207031 704.496094 380.007812 705.980469 378.773438 C 707.464844 377.535156 708.917969 376.261719 710.339844 374.953125 C 711.757812 373.640625 713.144531 372.292969 714.496094 370.914062 C 715.847656 369.53125 717.164062 368.117188 718.441406 366.667969 C 719.722656 365.21875 720.960938 363.738281 722.167969 362.226562 C 723.371094 360.714844 724.535156 359.171875 725.660156 357.597656 C 726.78125 356.027344 727.867188 354.429688 728.910156 352.800781 C 729.953125 351.171875 730.953125 349.519531 731.910156 347.84375 C 732.871094 346.164062 733.785156 344.460938 734.65625 342.738281 C 735.527344 341.011719 736.355469 339.265625 737.136719 337.5 C 737.917969 335.730469 738.65625 333.945312 739.347656 332.140625 C 740.039062 330.335938 740.683594 328.511719 741.28125 326.675781 C 741.878906 324.835938 742.429688 322.984375 742.929688 321.117188 C 743.433594 319.253906 743.890625 317.375 744.296875 315.484375 C 744.703125 313.597656 745.0625 311.699219 745.371094 309.789062 C 745.683594 307.882812 745.945312 305.96875 746.15625 304.046875 C 746.367188 302.125 746.53125 300.199219 746.644531 298.269531 C 746.757812 296.339844 746.824219 294.410156 746.839844 292.476562 C 746.855469 290.542969 746.820312 288.613281 746.738281 286.683594 C 746.652344 284.75 746.519531 282.824219 746.339844 280.898438 C 746.15625 278.976562 745.925781 277.054688 745.644531 275.144531 C 745.363281 273.230469 745.035156 271.328125 744.660156 269.433594 Z M 744.660156 269.433594 " fill-opacity="1" fill-rule="nonzero"/></g><path fill="#ffffff" d="M 463.570312 136.714844 C 455.269531 137.496094 447.761719 130.113281 452.132812 121.769531 C 454.351562 117.542969 459.894531 115.039062 463.664062 112.433594 L 504.195312 84.984375 C 508.46875 82.085938 512.890625 78.183594 517.804688 76.539062 C 525.441406 75.65625 532.964844 83.445312 529.425781 91.058594 C 527.0625 96.136719 520.125 99.191406 515.710938 102.148438 L 477.753906 128.011719 C 473.304688 131.09375 468.71875 134.96875 463.570312 136.714844 Z M 463.570312 136.714844 " fill-opacity="1" fill-rule="nonzero"/><g clip-path="url(#fc26074d50)"><path fill="#ffffff" d="M 229.136719 301.613281 C 215.382812 303.925781 199.296875 312.992188 185.757812 305.898438 C 170.234375 297.761719 156.902344 255.515625 165.296875 239.941406 C 170.917969 229.503906 180.09375 227.589844 190.394531 223.804688 C 252.496094 200.984375 327.261719 143.183594 368.105469 91.796875 C 370.648438 88.601562 373.820312 82.304688 377.929688 81.0625 C 386.117188 80.859375 386.886719 92.199219 388.726562 98.152344 C 391.5625 107.355469 394.390625 116.558594 397.410156 125.703125 L 448.789062 283.476562 C 450.40625 288.515625 456.175781 297.683594 449.140625 300.691406 C 444.078125 299.648438 439.335938 296.847656 434.492188 295.066406 C 392.222656 279.5 329.941406 280.917969 286.378906 287.269531 C 289.886719 295.746094 294.003906 304.089844 297.890625 312.402344 L 317.074219 353.625 C 319 357.804688 325.246094 369.609375 325.613281 373.253906 C 326.929688 386.277344 298.148438 392.289062 287.21875 393.007812 C 269.628906 393.109375 267.34375 378.726562 260.066406 364.304688 L 239.699219 323.25 C 236.195312 316.066406 232.976562 308.609375 229.136719 301.613281 Z M 229.136719 301.613281 " fill-opacity="1" fill-rule="nonzero"/></g><path fill="#ffffff" d="M 480.90625 185.132812 C 472.316406 185.253906 466.664062 175.644531 472.425781 168.507812 C 475.960938 164.128906 483.230469 163.839844 488.335938 162.898438 L 505.527344 159.664062 C 518.355469 157.164062 532.148438 153.601562 545.050781 152 C 553.335938 151.136719 558.429688 162.242188 553.375 168.570312 C 549.941406 172.871094 542.519531 173.339844 537.527344 174.339844 L 496.320312 182.4375 C 491.226562 183.414062 486.0625 184.636719 480.90625 185.132812 Z M 480.90625 185.132812 " fill-opacity="1" fill-rule="nonzero"/><path fill="#ffffff" d="M 545.734375 250.746094 C 539.535156 251.050781 533.371094 249.28125 527.335938 248.128906 L 503.214844 243.523438 C 497.917969 242.507812 481.390625 239.945312 477.167969 238.019531 C 468.011719 233.839844 470.410156 221.476562 479.714844 218.570312 C 486.730469 217.777344 496.652344 221.199219 503.714844 222.464844 L 529.816406 227.289062 C 535.910156 228.453125 543.738281 228.9375 549.210938 232.089844 C 557.496094 236.855469 554.351562 248.757812 545.734375 250.746094 Z M 545.734375 250.746094 " fill-opacity="1" fill-rule="nonzero"/><path stroke-linecap="butt" transform="matrix(-0.577531, -0.478496, 0.478496, -0.577531, 393.079553, 434.645614)" fill="none" stroke-linejoin="miter" d="M 6.924742 66.169595 C 70.176178 -10.05731 144.577909 -10.056211 230.133944 66.169568 " stroke="#000000" stroke-width="18" stroke-opacity="1" stroke-miterlimit="4"/><path stroke-linecap="butt" transform="matrix(-0.538318, 0.522219, -0.522219, -0.538318, 545.45604, 310.60102)" fill="none" stroke-linejoin="miter" d="M 5.376577 53.099708 C 84.282077 -5.700784 153.413422 -5.700472 212.770613 53.100642 " stroke="#000000" stroke-width="18" stroke-opacity="1" stroke-miterlimit="4"/></svg>