<svg xmlns="http://www.w3.org/2000/svg" xmlns:xlink="http://www.w3.org/1999/xlink" width="1080" zoomAndPan="magnify" viewBox="0 0 810 809.999993" height="1080" preserveAspectRatio="xMidYMid meet" version="1.0"><defs><clipPath id="f293d1148f"><path d="M 65 40.316406 L 745 40.316406 L 745 769.9375 L 65 769.9375 Z M 65 40.316406 " clip-rule="nonzero"/></clipPath><clipPath id="b7f78131f0"><path d="M 163 82 L 453 82 L 453 392.984375 L 163 392.984375 Z M 163 82 " clip-rule="nonzero"/></clipPath></defs><rect x="-81" width="972" fill="#ffffff" y="-80.999999" height="971.999992" fill-opacity="1"/><rect x="-81" width="972" fill="#ffffff" y="-80.999999" height="971.999992" fill-opacity="1"/><g clip-path="url(#f293d1148f)"><path fill="#f59e0b" d="M 632.066406 459.703125 C 643.175781 459.675781 654.175781 458.550781 665.058594 456.332031 C 675.945312 454.113281 686.507812 450.84375 696.738281 446.519531 L 696.738281 696.742188 C 696.738281 697.9375 696.710938 699.128906 696.652344 700.320312 C 696.59375 701.511719 696.503906 702.703125 696.386719 703.890625 C 696.269531 705.078125 696.125 706.265625 695.949219 707.445312 C 695.773438 708.625 695.570312 709.800781 695.339844 710.972656 C 695.105469 712.140625 694.84375 713.304688 694.554688 714.464844 C 694.265625 715.621094 693.945312 716.773438 693.597656 717.914062 C 693.253906 719.058594 692.878906 720.191406 692.476562 721.3125 C 692.074219 722.4375 691.644531 723.550781 691.1875 724.652344 C 690.730469 725.757812 690.246094 726.847656 689.738281 727.925781 C 689.226562 729.003906 688.691406 730.070312 688.128906 731.125 C 687.566406 732.175781 686.976562 733.214844 686.363281 734.238281 C 685.75 735.261719 685.109375 736.269531 684.449219 737.261719 C 683.785156 738.257812 683.097656 739.230469 682.386719 740.191406 C 681.675781 741.148438 680.941406 742.089844 680.183594 743.011719 C 679.425781 743.933594 678.648438 744.839844 677.84375 745.722656 C 677.042969 746.609375 676.222656 747.472656 675.378906 748.316406 C 674.53125 749.160156 673.667969 749.984375 672.785156 750.785156 C 671.898438 751.585938 670.996094 752.367188 670.074219 753.121094 C 669.152344 753.878906 668.210938 754.613281 667.25 755.324219 C 666.292969 756.035156 665.316406 756.722656 664.324219 757.386719 C 663.332031 758.050781 662.324219 758.6875 661.300781 759.300781 C 660.277344 759.914062 659.238281 760.503906 658.1875 761.066406 C 657.132812 761.628906 656.066406 762.164062 654.988281 762.675781 C 653.910156 763.1875 652.816406 763.667969 651.714844 764.125 C 650.613281 764.582031 649.5 765.011719 648.375 765.414062 C 647.25 765.816406 646.117188 766.191406 644.976562 766.539062 C 643.832031 766.882812 642.683594 767.203125 641.527344 767.492188 C 640.367188 767.78125 639.203125 768.042969 638.03125 768.277344 C 636.863281 768.507812 635.6875 768.714844 634.503906 768.890625 C 633.324219 769.0625 632.140625 769.210938 630.953125 769.328125 C 629.765625 769.445312 628.574219 769.53125 627.382812 769.589844 C 626.191406 769.648438 624.996094 769.679688 623.804688 769.679688 L 514.398438 769.679688 C 513.207031 769.679688 512.015625 769.621094 510.824219 769.503906 C 509.636719 769.386719 508.457031 769.210938 507.285156 768.976562 C 506.113281 768.746094 504.957031 768.453125 503.8125 768.109375 C 502.671875 767.761719 501.546875 767.359375 500.445312 766.902344 C 499.339844 766.445312 498.261719 765.933594 497.210938 765.371094 C 496.15625 764.808594 495.132812 764.195312 494.140625 763.53125 C 493.148438 762.867188 492.1875 762.160156 491.265625 761.402344 C 490.34375 760.644531 489.457031 759.839844 488.613281 758.996094 C 487.769531 758.152344 486.96875 757.269531 486.210938 756.34375 C 485.453125 755.421875 484.742188 754.464844 484.078125 753.472656 C 483.414062 752.476562 482.800781 751.453125 482.238281 750.402344 C 481.675781 749.347656 481.164062 748.269531 480.707031 747.164062 C 480.25 746.0625 479.847656 744.941406 479.503906 743.796875 C 479.15625 742.652344 478.867188 741.496094 478.632812 740.324219 C 478.398438 739.152344 478.226562 737.972656 478.109375 736.785156 C 477.992188 735.597656 477.933594 734.40625 477.933594 733.210938 L 477.933594 623.808594 C 477.933594 622.484375 477.894531 621.164062 477.824219 619.84375 C 477.75 618.523438 477.644531 617.207031 477.5 615.890625 C 477.355469 614.578125 477.175781 613.269531 476.960938 611.964844 C 476.746094 610.660156 476.496094 609.363281 476.210938 608.070312 C 475.925781 606.78125 475.605469 605.5 475.25 604.226562 C 474.894531 602.953125 474.507812 601.6875 474.082031 600.4375 C 473.660156 599.183594 473.203125 597.945312 472.710938 596.714844 C 472.21875 595.488281 471.695312 594.277344 471.140625 593.078125 C 470.582031 591.878906 469.992188 590.695312 469.371094 589.527344 C 468.75 588.359375 468.097656 587.210938 467.414062 586.082031 C 466.730469 584.949219 466.015625 583.835938 465.273438 582.746094 C 464.527344 581.652344 463.753906 580.578125 462.953125 579.527344 C 462.148438 578.476562 461.320312 577.449219 460.460938 576.445312 C 459.601562 575.4375 458.71875 574.457031 457.808594 573.5 C 456.894531 572.542969 455.957031 571.609375 454.996094 570.703125 C 454.035156 569.796875 453.046875 568.917969 452.039062 568.066406 C 451.027344 567.210938 449.996094 566.386719 448.941406 565.589844 C 447.886719 564.792969 446.808594 564.027344 445.714844 563.285156 C 444.617188 562.546875 443.5 561.839844 442.367188 561.164062 C 441.230469 560.484375 440.078125 559.839844 438.90625 559.222656 C 437.738281 558.609375 436.550781 558.023438 435.351562 557.472656 C 434.148438 556.921875 432.933594 556.40625 431.703125 555.921875 C 430.472656 555.4375 429.230469 554.984375 427.976562 554.570312 C 426.722656 554.152344 425.457031 553.769531 424.179688 553.421875 C 422.90625 553.070312 421.621094 552.757812 420.328125 552.480469 C 419.035156 552.199219 417.738281 551.957031 416.433594 551.75 C 415.125 551.542969 413.816406 551.371094 412.5 551.230469 C 411.1875 551.09375 409.867188 550.996094 408.546875 550.929688 C 407.226562 550.863281 405.90625 550.835938 404.585938 550.839844 C 403.261719 550.847656 401.941406 550.890625 400.621094 550.96875 C 399.300781 551.046875 397.984375 551.160156 396.671875 551.308594 C 395.359375 551.460938 394.050781 551.644531 392.746094 551.867188 C 390.59375 552.300781 388.460938 552.828125 386.351562 553.449219 C 384.242188 554.070312 382.164062 554.78125 380.117188 555.582031 C 378.066406 556.382812 376.058594 557.273438 374.089844 558.25 C 372.121094 559.226562 370.195312 560.285156 368.320312 561.429688 C 366.441406 562.574219 364.617188 563.796875 362.847656 565.101562 C 361.074219 566.402344 359.367188 567.78125 357.714844 569.234375 C 356.066406 570.6875 354.480469 572.207031 352.960938 573.800781 C 351.445312 575.390625 350 577.042969 348.625 578.761719 C 347.25 580.476562 345.957031 582.25 344.734375 584.078125 C 343.515625 585.910156 342.378906 587.789062 341.324219 589.71875 C 340.269531 591.644531 339.300781 593.617188 338.417969 595.628906 C 337.535156 597.644531 336.738281 599.691406 336.035156 601.773438 C 335.328125 603.855469 334.71875 605.964844 334.195312 608.101562 C 333.675781 610.238281 333.25 612.394531 332.914062 614.566406 C 332.582031 616.738281 332.34375 618.921875 332.203125 621.117188 C 332.058594 623.3125 332.011719 625.507812 332.0625 627.707031 L 332.0625 733.210938 C 332.0625 734.40625 332.003906 735.597656 331.886719 736.785156 C 331.769531 737.972656 331.59375 739.152344 331.359375 740.324219 C 331.128906 741.496094 330.835938 742.652344 330.492188 743.796875 C 330.144531 744.941406 329.742188 746.0625 329.285156 747.164062 C 328.828125 748.269531 328.316406 749.347656 327.753906 750.402344 C 327.191406 751.453125 326.578125 752.476562 325.914062 753.472656 C 325.25 754.464844 324.539062 755.421875 323.78125 756.34375 C 323.027344 757.269531 322.222656 758.152344 321.378906 758.996094 C 320.535156 759.839844 319.652344 760.644531 318.726562 761.402344 C 317.804688 762.15625 316.847656 762.867188 315.855469 763.53125 C 314.859375 764.195312 313.835938 764.808594 312.785156 765.371094 C 311.730469 765.933594 310.652344 766.445312 309.546875 766.902344 C 308.445312 767.359375 307.320312 767.761719 306.179688 768.109375 C 305.035156 768.453125 303.878906 768.746094 302.707031 768.976562 C 301.535156 769.210938 300.355469 769.386719 299.167969 769.503906 C 297.980469 769.621094 296.789062 769.679688 295.59375 769.679688 L 186.191406 769.679688 C 184.996094 769.679688 183.804688 769.648438 182.609375 769.589844 C 181.417969 769.53125 180.226562 769.445312 179.039062 769.328125 C 177.851562 769.210938 176.667969 769.0625 175.488281 768.890625 C 174.308594 768.714844 173.132812 768.507812 171.960938 768.277344 C 170.789062 768.042969 169.625 767.78125 168.46875 767.492188 C 167.308594 767.203125 166.160156 766.882812 165.015625 766.539062 C 163.875 766.191406 162.742188 765.816406 161.617188 765.414062 C 160.496094 765.011719 159.382812 764.582031 158.277344 764.125 C 157.175781 763.667969 156.085938 763.1875 155.003906 762.675781 C 153.925781 762.164062 152.859375 761.628906 151.808594 761.066406 C 150.753906 760.503906 149.71875 759.914062 148.691406 759.300781 C 147.667969 758.6875 146.660156 758.050781 145.667969 757.386719 C 144.675781 756.722656 143.699219 756.035156 142.742188 755.324219 C 141.78125 754.613281 140.84375 753.878906 139.917969 753.121094 C 138.996094 752.367188 138.09375 751.585938 137.207031 750.785156 C 136.324219 749.984375 135.460938 749.160156 134.617188 748.316406 C 133.773438 747.472656 132.949219 746.609375 132.148438 745.722656 C 131.347656 744.839844 130.566406 743.933594 129.808594 743.011719 C 129.050781 742.089844 128.316406 741.148438 127.605469 740.191406 C 126.894531 739.230469 126.207031 738.257812 125.546875 737.261719 C 124.882812 736.269531 124.242188 735.261719 123.628906 734.238281 C 123.015625 733.214844 122.429688 732.175781 121.867188 731.125 C 121.304688 730.070312 120.765625 729.003906 120.257812 727.925781 C 119.746094 726.847656 119.261719 725.757812 118.804688 724.652344 C 118.347656 723.550781 117.917969 722.4375 117.515625 721.3125 C 117.113281 720.191406 116.742188 719.058594 116.394531 717.914062 C 116.046875 716.773438 115.730469 715.621094 115.441406 714.464844 C 115.148438 713.304688 114.886719 712.140625 114.65625 710.972656 C 114.421875 709.800781 114.21875 708.625 114.042969 707.445312 C 113.867188 706.265625 113.722656 705.078125 113.605469 703.890625 C 113.488281 702.703125 113.398438 701.511719 113.339844 700.320312 C 113.28125 699.128906 113.253906 697.9375 113.253906 696.742188 L 113.253906 446.519531 C 116.925781 448.074219 120.644531 449.496094 124.417969 450.785156 C 128.191406 452.074219 132.007812 453.226562 135.863281 454.242188 C 139.71875 455.253906 143.605469 456.128906 147.527344 456.863281 C 151.445312 457.597656 155.386719 458.1875 159.347656 458.640625 C 163.308594 459.089844 167.28125 459.398438 171.265625 459.5625 C 175.25 459.726562 179.234375 459.746094 183.21875 459.621094 C 187.203125 459.5 191.179688 459.234375 195.144531 458.824219 C 199.113281 458.414062 203.058594 457.863281 206.984375 457.171875 C 210.910156 456.476562 214.808594 455.644531 218.675781 454.667969 C 222.539062 453.695312 226.367188 452.582031 230.152344 451.332031 C 233.9375 450.082031 237.675781 448.699219 241.363281 447.179688 C 245.046875 445.660156 248.675781 444.011719 252.242188 442.230469 C 255.8125 440.453125 259.308594 438.546875 262.742188 436.511719 C 266.171875 434.480469 269.523438 432.328125 272.800781 430.054688 C 276.074219 427.78125 279.265625 425.390625 282.367188 422.890625 C 285.472656 420.386719 288.480469 417.773438 291.394531 415.054688 C 293.300781 416.828125 295.25 418.554688 297.238281 420.234375 C 299.226562 421.917969 301.253906 423.550781 303.316406 425.136719 C 305.382812 426.722656 307.480469 428.261719 309.617188 429.75 C 311.753906 431.238281 313.925781 432.675781 316.128906 434.0625 C 318.332031 435.449219 320.566406 436.785156 322.832031 438.066406 C 325.097656 439.347656 327.394531 440.574219 329.71875 441.75 C 332.039062 442.925781 334.390625 444.046875 336.765625 445.109375 C 339.144531 446.175781 341.542969 447.183594 343.964844 448.136719 C 346.390625 449.085938 348.832031 449.984375 351.296875 450.820312 C 353.761719 451.660156 356.246094 452.4375 358.75 453.160156 C 361.25 453.882812 363.769531 454.542969 366.300781 455.148438 C 368.832031 455.75 371.378906 456.296875 373.9375 456.78125 C 376.496094 457.265625 379.0625 457.691406 381.640625 458.054688 C 384.21875 458.417969 386.804688 458.722656 389.398438 458.964844 C 391.988281 459.210938 394.585938 459.390625 397.1875 459.511719 C 399.789062 459.636719 402.390625 459.695312 404.992188 459.695312 C 407.597656 459.695312 410.199219 459.636719 412.800781 459.511719 C 415.402344 459.390625 417.996094 459.210938 420.589844 458.964844 C 423.183594 458.722656 425.765625 458.417969 428.34375 458.054688 C 430.921875 457.691406 433.492188 457.265625 436.050781 456.78125 C 438.609375 456.296875 441.152344 455.75 443.6875 455.148438 C 446.21875 454.542969 448.734375 453.882812 451.238281 453.160156 C 453.738281 452.4375 456.222656 451.660156 458.6875 450.820312 C 461.152344 449.984375 463.597656 449.085938 466.019531 448.136719 C 468.445312 447.183594 470.84375 446.175781 473.21875 445.109375 C 475.59375 444.046875 477.945312 442.925781 480.269531 441.75 C 482.59375 440.574219 484.886719 439.347656 487.152344 438.066406 C 489.417969 436.785156 491.65625 435.449219 493.859375 434.0625 C 496.0625 432.675781 498.230469 431.238281 500.367188 429.75 C 502.503906 428.261719 504.605469 426.722656 506.667969 425.136719 C 508.734375 423.550781 510.761719 421.917969 512.75 420.234375 C 514.734375 418.554688 516.683594 416.828125 518.589844 415.054688 C 522.402344 418.597656 526.375 421.953125 530.5 425.125 C 534.628906 428.296875 538.894531 431.269531 543.300781 434.042969 C 547.703125 436.816406 552.230469 439.375 556.875 441.726562 C 561.519531 444.074219 566.261719 446.203125 571.105469 448.109375 C 575.949219 450.015625 580.871094 451.691406 585.871094 453.136719 C 590.875 454.582031 595.929688 455.789062 601.042969 456.761719 C 606.15625 457.734375 611.304688 458.464844 616.488281 458.957031 C 621.667969 459.449219 626.863281 459.695312 632.066406 459.703125 Z M 742.6875 270.070312 L 708.460938 98.9375 C 708.050781 96.890625 707.554688 94.867188 706.96875 92.859375 C 706.386719 90.855469 705.71875 88.878906 704.964844 86.933594 C 704.210938 84.984375 703.375 83.074219 702.457031 81.199219 C 701.539062 79.324219 700.542969 77.488281 699.464844 75.699219 C 698.390625 73.910156 697.242188 72.167969 696.015625 70.476562 C 694.792969 68.785156 693.496094 67.152344 692.132812 65.570312 C 690.765625 63.992188 689.335938 62.472656 687.839844 61.015625 C 686.34375 59.558594 684.789062 58.167969 683.175781 56.84375 C 681.558594 55.519531 679.890625 54.269531 678.167969 53.089844 C 676.445312 51.910156 674.675781 50.804688 672.859375 49.777344 C 671.039062 48.746094 669.183594 47.800781 667.285156 46.929688 C 665.382812 46.0625 663.453125 45.277344 661.484375 44.574219 C 659.519531 43.871094 657.527344 43.253906 655.507812 42.722656 C 653.488281 42.191406 651.449219 41.746094 649.390625 41.390625 C 647.335938 41.035156 645.265625 40.765625 643.183594 40.589844 C 641.105469 40.410156 639.019531 40.320312 636.933594 40.320312 L 173.0625 40.320312 C 170.972656 40.320312 168.886719 40.410156 166.808594 40.589844 C 164.726562 40.765625 162.65625 41.035156 160.601562 41.390625 C 158.542969 41.746094 156.503906 42.191406 154.484375 42.722656 C 152.464844 43.253906 150.472656 43.871094 148.503906 44.574219 C 146.539062 45.277344 144.605469 46.0625 142.707031 46.933594 C 140.808594 47.800781 138.949219 48.75 137.132812 49.777344 C 135.3125 50.804688 133.542969 51.910156 131.820312 53.089844 C 130.097656 54.273438 128.429688 55.523438 126.8125 56.847656 C 125.199219 58.171875 123.644531 59.5625 122.148438 61.019531 C 120.652344 62.476562 119.222656 63.996094 117.855469 65.574219 C 116.492188 67.15625 115.195312 68.792969 113.972656 70.484375 C 112.746094 72.175781 111.597656 73.917969 110.519531 75.707031 C 109.445312 77.496094 108.449219 79.332031 107.53125 81.207031 C 106.613281 83.082031 105.777344 84.992188 105.023438 86.941406 C 104.273438 88.890625 103.601562 90.867188 103.019531 92.871094 C 102.4375 94.875 101.9375 96.902344 101.53125 98.949219 L 67.304688 270.070312 C 66.925781 271.953125 66.597656 273.847656 66.316406 275.75 C 66.035156 277.652344 65.804688 279.5625 65.621094 281.476562 C 65.4375 283.390625 65.304688 285.308594 65.21875 287.230469 C 65.132812 289.152344 65.097656 291.074219 65.113281 292.996094 C 65.125 294.917969 65.1875 296.839844 65.300781 298.761719 C 65.410156 300.679688 65.570312 302.597656 65.78125 304.507812 C 65.992188 306.421875 66.25 308.324219 66.558594 310.222656 C 66.863281 312.121094 67.21875 314.011719 67.621094 315.890625 C 68.027344 317.773438 68.476562 319.640625 68.976562 321.5 C 69.476562 323.355469 70.023438 325.199219 70.617188 327.027344 C 71.210938 328.859375 71.851562 330.671875 72.535156 332.46875 C 73.222656 334.261719 73.953125 336.042969 74.730469 337.800781 C 75.507812 339.558594 76.332031 341.296875 77.199219 343.015625 C 78.0625 344.730469 78.972656 346.425781 79.925781 348.097656 C 80.878906 349.765625 81.875 351.410156 82.910156 353.03125 C 83.949219 354.652344 85.023438 356.242188 86.144531 357.808594 C 87.261719 359.371094 88.417969 360.90625 89.617188 362.414062 C 90.8125 363.917969 92.046875 365.390625 93.320312 366.832031 C 94.59375 368.277344 95.902344 369.683594 97.246094 371.058594 C 98.589844 372.433594 99.96875 373.773438 101.378906 375.082031 C 102.792969 376.386719 104.238281 377.652344 105.714844 378.882812 C 107.195312 380.113281 108.703125 381.304688 110.242188 382.460938 C 111.78125 383.613281 113.347656 384.726562 114.941406 385.800781 C 116.539062 386.875 118.160156 387.90625 119.808594 388.898438 C 121.457031 389.886719 123.128906 390.835938 124.828125 391.742188 C 126.523438 392.644531 128.242188 393.507812 129.984375 394.324219 C 131.722656 395.140625 133.484375 395.914062 135.265625 396.640625 C 137.046875 397.367188 138.84375 398.046875 140.660156 398.683594 C 142.476562 399.316406 144.304688 399.90625 146.148438 400.449219 C 147.996094 400.988281 149.855469 401.484375 151.722656 401.929688 C 153.59375 402.375 155.476562 402.773438 157.367188 403.125 C 159.257812 403.476562 161.15625 403.777344 163.0625 404.03125 C 164.96875 404.28125 166.882812 404.488281 168.796875 404.640625 C 170.714844 404.796875 172.632812 404.902344 174.558594 404.960938 C 176.480469 405.019531 178.402344 405.027344 180.324219 404.984375 C 182.246094 404.945312 184.167969 404.851562 186.085938 404.714844 C 188.003906 404.574219 189.917969 404.386719 191.824219 404.148438 C 193.734375 403.910156 195.636719 403.625 197.527344 403.292969 C 199.421875 402.957031 201.308594 402.574219 203.179688 402.144531 C 205.054688 401.710938 206.917969 401.234375 208.765625 400.707031 C 210.617188 400.179688 212.453125 399.609375 214.273438 398.988281 C 216.09375 398.367188 217.898438 397.703125 219.683594 396.988281 C 221.46875 396.277344 223.238281 395.519531 224.984375 394.71875 C 226.730469 393.914062 228.457031 393.066406 230.164062 392.175781 C 231.867188 391.285156 233.546875 390.351562 235.203125 389.375 C 236.859375 388.398438 238.492188 387.378906 240.09375 386.320312 C 241.699219 385.261719 243.277344 384.160156 244.824219 383.019531 C 246.371094 381.878906 247.890625 380.699219 249.378906 379.480469 C 250.867188 378.261719 252.320312 377.003906 253.746094 375.710938 C 255.167969 374.417969 256.558594 373.089844 257.914062 371.726562 C 259.269531 370.363281 260.589844 368.964844 261.875 367.53125 C 263.160156 366.101562 264.40625 364.636719 265.613281 363.140625 C 266.824219 361.648438 267.996094 360.121094 269.125 358.566406 C 270.257812 357.011719 271.347656 355.429688 272.398438 353.816406 C 273.449219 352.207031 274.457031 350.570312 275.421875 348.90625 C 276.390625 347.246094 277.3125 345.558594 278.195312 343.847656 C 279.074219 342.136719 279.910156 340.40625 280.703125 338.65625 C 281.496094 336.902344 282.242188 335.128906 282.941406 333.339844 C 283.644531 331.546875 284.296875 329.742188 284.90625 327.917969 C 285.515625 326.09375 286.078125 324.253906 286.59375 322.402344 C 287.105469 320.546875 287.574219 318.683594 287.992188 316.804688 C 288.414062 314.929688 288.785156 313.042969 289.105469 311.148438 C 289.429688 309.25 289.703125 307.347656 289.929688 305.4375 C 290.15625 303.527344 290.332031 301.613281 290.457031 299.695312 L 292.035156 299.695312 C 292.144531 301.453125 292.296875 303.210938 292.492188 304.964844 C 292.6875 306.714844 292.921875 308.464844 293.199219 310.203125 C 293.472656 311.945312 293.792969 313.679688 294.148438 315.40625 C 294.507812 317.132812 294.90625 318.851562 295.34375 320.558594 C 295.785156 322.265625 296.261719 323.964844 296.78125 325.648438 C 297.300781 327.332031 297.855469 329.007812 298.453125 330.664062 C 299.050781 332.324219 299.6875 333.96875 300.363281 335.597656 C 301.035156 337.226562 301.75 338.839844 302.5 340.433594 C 303.25 342.03125 304.039062 343.609375 304.863281 345.164062 C 305.6875 346.722656 306.546875 348.261719 307.445312 349.78125 C 308.34375 351.300781 309.277344 352.796875 310.242188 354.269531 C 311.210938 355.742188 312.210938 357.195312 313.25 358.621094 C 314.285156 360.046875 315.351562 361.449219 316.453125 362.828125 C 317.554688 364.203125 318.691406 365.554688 319.855469 366.875 C 321.019531 368.199219 322.214844 369.496094 323.441406 370.761719 C 324.667969 372.03125 325.925781 373.265625 327.207031 374.476562 C 328.492188 375.683594 329.804688 376.859375 331.144531 378.007812 C 332.484375 379.152344 333.851562 380.265625 335.242188 381.347656 C 336.636719 382.429688 338.054688 383.480469 339.496094 384.496094 C 340.9375 385.511719 342.402344 386.492188 343.890625 387.4375 C 345.375 388.382812 346.886719 389.296875 348.417969 390.171875 C 349.949219 391.046875 351.496094 391.882812 353.066406 392.6875 C 354.636719 393.488281 356.226562 394.253906 357.832031 394.980469 C 359.4375 395.710938 361.0625 396.398438 362.699219 397.050781 C 364.339844 397.703125 365.992188 398.3125 367.660156 398.886719 C 369.328125 399.460938 371.007812 399.996094 372.699219 400.488281 C 374.390625 400.984375 376.09375 401.4375 377.808594 401.851562 C 379.523438 402.265625 381.246094 402.640625 382.976562 402.972656 C 384.707031 403.308594 386.449219 403.601562 388.191406 403.851562 C 389.9375 404.101562 391.6875 404.3125 393.441406 404.480469 C 395.199219 404.652344 396.957031 404.777344 398.71875 404.863281 C 400.480469 404.953125 402.242188 404.996094 404.003906 405 L 405.988281 405 C 407.75 404.996094 409.515625 404.949219 411.273438 404.863281 C 413.035156 404.777344 414.792969 404.648438 416.546875 404.480469 C 418.304688 404.3125 420.054688 404.101562 421.796875 403.847656 C 423.542969 403.597656 425.28125 403.304688 427.011719 402.972656 C 428.742188 402.640625 430.464844 402.265625 432.179688 401.851562 C 433.894531 401.4375 435.597656 400.980469 437.289062 400.488281 C 438.980469 399.992188 440.660156 399.457031 442.328125 398.886719 C 443.996094 398.3125 445.648438 397.699219 447.285156 397.046875 C 448.925781 396.394531 450.546875 395.707031 452.152344 394.980469 C 453.757812 394.25 455.347656 393.488281 456.917969 392.683594 C 458.488281 391.882812 460.035156 391.042969 461.566406 390.167969 C 463.097656 389.292969 464.605469 388.382812 466.09375 387.433594 C 467.582031 386.488281 469.046875 385.507812 470.488281 384.492188 C 471.929688 383.476562 473.347656 382.429688 474.738281 381.347656 C 476.128906 380.265625 477.496094 379.152344 478.835938 378.003906 C 480.175781 376.859375 481.488281 375.683594 482.773438 374.472656 C 484.054688 373.265625 485.3125 372.027344 486.539062 370.761719 C 487.761719 369.496094 488.960938 368.199219 490.125 366.875 C 491.289062 365.554688 492.421875 364.203125 493.523438 362.828125 C 494.625 361.449219 495.695312 360.050781 496.730469 358.621094 C 497.765625 357.195312 498.769531 355.746094 499.734375 354.269531 C 500.703125 352.796875 501.636719 351.300781 502.53125 349.785156 C 503.429688 348.265625 504.289062 346.726562 505.113281 345.167969 C 505.9375 343.609375 506.726562 342.035156 507.476562 340.4375 C 508.226562 338.84375 508.941406 337.230469 509.613281 335.601562 C 510.289062 333.972656 510.925781 332.328125 511.523438 330.671875 C 512.121094 329.011719 512.679688 327.339844 513.195312 325.65625 C 513.714844 323.96875 514.195312 322.273438 514.632812 320.566406 C 515.070312 318.859375 515.46875 317.140625 515.828125 315.414062 C 516.1875 313.6875 516.503906 311.957031 516.78125 310.214844 C 517.054688 308.472656 517.292969 306.726562 517.484375 304.972656 C 517.679688 303.222656 517.832031 301.464844 517.945312 299.707031 L 519.519531 299.707031 C 519.648438 301.625 519.828125 303.535156 520.054688 305.445312 C 520.285156 307.351562 520.558594 309.253906 520.882812 311.148438 C 521.207031 313.042969 521.582031 314.929688 522.003906 316.804688 C 522.421875 318.679688 522.890625 320.542969 523.40625 322.394531 C 523.925781 324.242188 524.488281 326.082031 525.097656 327.902344 C 525.707031 329.726562 526.363281 331.53125 527.066406 333.320312 C 527.769531 335.109375 528.515625 336.878906 529.308594 338.628906 C 530.101562 340.382812 530.9375 342.109375 531.820312 343.816406 C 532.703125 345.527344 533.625 347.210938 534.59375 348.871094 C 535.558594 350.53125 536.570312 352.167969 537.621094 353.777344 C 538.671875 355.386719 539.761719 356.964844 540.894531 358.519531 C 542.027344 360.074219 543.195312 361.597656 544.40625 363.089844 C 545.617188 364.582031 546.863281 366.046875 548.148438 367.476562 C 549.433594 368.90625 550.75 370.300781 552.105469 371.664062 C 553.464844 373.023438 554.851562 374.351562 556.277344 375.644531 C 557.699219 376.933594 559.15625 378.1875 560.644531 379.40625 C 562.128906 380.621094 563.648438 381.800781 565.195312 382.941406 C 566.742188 384.078125 568.320312 385.179688 569.921875 386.238281 C 571.527344 387.296875 573.15625 388.3125 574.8125 389.289062 C 576.46875 390.261719 578.148438 391.195312 579.851562 392.085938 C 581.554688 392.976562 583.28125 393.820312 585.027344 394.621094 C 586.773438 395.421875 588.542969 396.179688 590.328125 396.890625 C 592.113281 397.601562 593.914062 398.265625 595.734375 398.886719 C 597.554688 399.503906 599.386719 400.078125 601.238281 400.601562 C 603.085938 401.128906 604.945312 401.605469 606.820312 402.035156 C 608.691406 402.464844 610.574219 402.847656 612.46875 403.179688 C 614.359375 403.515625 616.261719 403.800781 618.167969 404.035156 C 620.074219 404.273438 621.988281 404.460938 623.90625 404.601562 C 625.820312 404.738281 627.742188 404.828125 629.660156 404.871094 C 631.582031 404.910156 633.503906 404.902344 635.425781 404.84375 C 637.347656 404.789062 639.265625 404.683594 641.179688 404.527344 C 643.097656 404.371094 645.007812 404.167969 646.910156 403.914062 C 648.816406 403.660156 650.714844 403.359375 652.605469 403.007812 C 654.492188 402.660156 656.375 402.261719 658.242188 401.816406 C 660.113281 401.371094 661.96875 400.875 663.8125 400.335938 C 665.65625 399.792969 667.488281 399.207031 669.300781 398.570312 C 671.113281 397.9375 672.910156 397.257812 674.691406 396.53125 C 676.46875 395.804688 678.230469 395.03125 679.96875 394.214844 C 681.710938 393.398438 683.429688 392.539062 685.125 391.636719 C 686.820312 390.730469 688.492188 389.785156 690.140625 388.796875 C 691.785156 387.804688 693.40625 386.773438 695.003906 385.703125 C 696.597656 384.628906 698.164062 383.519531 699.703125 382.367188 C 701.242188 381.214844 702.75 380.023438 704.226562 378.792969 C 705.703125 377.5625 707.148438 376.296875 708.558594 374.992188 C 709.972656 373.691406 711.351562 372.351562 712.695312 370.976562 C 714.039062 369.601562 715.347656 368.195312 716.617188 366.753906 C 717.890625 365.316406 719.125 363.84375 720.320312 362.339844 C 721.519531 360.835938 722.675781 359.300781 723.792969 357.738281 C 724.914062 356.175781 725.992188 354.585938 727.027344 352.96875 C 728.066406 351.347656 729.058594 349.707031 730.011719 348.035156 C 730.964844 346.367188 731.875 344.675781 732.742188 342.960938 C 733.609375 341.246094 734.429688 339.507812 735.210938 337.75 C 735.988281 335.992188 736.71875 334.21875 737.40625 332.421875 C 738.09375 330.628906 738.734375 328.816406 739.328125 326.988281 C 739.921875 325.160156 740.472656 323.320312 740.972656 321.464844 C 741.472656 319.609375 741.925781 317.742188 742.328125 315.863281 C 742.734375 313.984375 743.089844 312.09375 743.398438 310.199219 C 743.707031 308.300781 743.96875 306.398438 744.179688 304.488281 C 744.390625 302.578125 744.550781 300.664062 744.664062 298.746094 C 744.777344 296.824219 744.84375 294.90625 744.859375 292.984375 C 744.871094 291.0625 744.839844 289.140625 744.753906 287.222656 C 744.671875 285.300781 744.539062 283.382812 744.359375 281.472656 C 744.179688 279.558594 743.949219 277.648438 743.671875 275.75 C 743.390625 273.847656 743.066406 271.953125 742.6875 270.070312 Z M 742.6875 270.070312 " fill-opacity="1" fill-rule="nonzero"/></g><path fill="#ffffff" d="M 463.261719 138.132812 C 455.003906 138.914062 447.535156 131.566406 451.886719 123.265625 C 454.089844 119.0625 459.605469 116.574219 463.355469 113.980469 L 503.671875 86.675781 C 507.921875 83.792969 512.320312 79.914062 517.207031 78.273438 C 524.804688 77.398438 532.289062 85.144531 528.765625 92.71875 C 526.417969 97.769531 519.515625 100.808594 515.128906 103.75 L 477.371094 129.476562 C 472.945312 132.542969 468.378906 136.394531 463.261719 138.132812 Z M 463.261719 138.132812 " fill-opacity="1" fill-rule="nonzero"/><g clip-path="url(#b7f78131f0)"><path fill="#ffffff" d="M 230.066406 302.160156 C 216.382812 304.457031 200.382812 313.480469 186.917969 306.421875 C 171.472656 298.328125 158.214844 256.308594 166.5625 240.8125 C 172.15625 230.433594 181.28125 228.527344 191.527344 224.761719 C 253.304688 202.0625 327.671875 144.570312 368.300781 93.453125 C 370.828125 90.273438 373.984375 84.011719 378.070312 82.777344 C 386.21875 82.574219 386.984375 93.855469 388.8125 99.777344 C 391.636719 108.929688 394.445312 118.082031 397.449219 127.179688 L 448.554688 284.117188 C 450.164062 289.128906 455.90625 298.25 448.90625 301.246094 C 443.871094 300.207031 439.15625 297.421875 434.335938 295.648438 C 392.292969 280.164062 330.335938 281.574219 287.007812 287.890625 C 290.496094 296.320312 294.589844 304.621094 298.457031 312.890625 L 317.539062 353.894531 C 319.453125 358.054688 325.667969 369.796875 326.03125 373.421875 C 327.34375 386.375 298.714844 392.355469 287.839844 393.070312 C 270.347656 393.171875 268.074219 378.867188 260.835938 364.519531 L 240.574219 323.679688 C 237.089844 316.539062 233.886719 309.117188 230.066406 302.160156 Z M 230.066406 302.160156 " fill-opacity="1" fill-rule="nonzero"/></g><path fill="#ffffff" d="M 480.503906 186.296875 C 471.960938 186.414062 466.339844 176.855469 472.070312 169.757812 C 475.585938 165.402344 482.816406 165.113281 487.894531 164.179688 L 504.996094 160.960938 C 517.757812 158.472656 531.472656 154.933594 544.308594 153.335938 C 552.550781 152.480469 557.617188 163.527344 552.589844 169.824219 C 549.175781 174.097656 541.792969 174.566406 536.824219 175.558594 L 495.835938 183.613281 C 490.769531 184.585938 485.636719 185.804688 480.503906 186.296875 Z M 480.503906 186.296875 " fill-opacity="1" fill-rule="nonzero"/><path fill="#ffffff" d="M 544.988281 251.5625 C 538.824219 251.867188 532.695312 250.101562 526.691406 248.960938 L 502.695312 244.378906 C 497.425781 243.367188 480.988281 240.820312 476.785156 238.902344 C 467.679688 234.742188 470.0625 222.445312 479.316406 219.558594 C 486.296875 218.765625 496.167969 222.171875 503.195312 223.429688 L 529.15625 228.230469 C 535.21875 229.386719 543.003906 229.867188 548.449219 233.003906 C 556.691406 237.746094 553.5625 249.585938 544.988281 251.5625 Z M 544.988281 251.5625 " fill-opacity="1" fill-rule="nonzero"/><path stroke-linecap="butt" transform="matrix(-0.574476, -0.475965, 0.475965, -0.574476, 393.14263, 434.488846)" fill="none" stroke-linejoin="miter" d="M 6.927861 66.167715 C 70.175934 -10.053888 144.579812 -10.059936 230.13742 66.171688 " stroke="#f59e0b" stroke-width="18" stroke-opacity="1" stroke-miterlimit="4"/><path stroke-linecap="butt" transform="matrix(-0.535471, 0.519457, -0.519457, -0.535471, 544.713072, 311.100444)" fill="none" stroke-linejoin="miter" d="M 5.378474 53.099782 C 84.282509 -5.699671 153.414925 -5.697499 212.771965 53.102654 " stroke="#f59e0b" stroke-width="18" stroke-opacity="1" stroke-miterlimit="4"/></svg>