<svg xmlns="http://www.w3.org/2000/svg" xmlns:xlink="http://www.w3.org/1999/xlink" width="1080" zoomAndPan="magnify" viewBox="0 0 810 809.999993" height="1080" preserveAspectRatio="xMidYMid meet" version="1.0"><path fill="#fd9228" d="M 156.097656 807.671875 C 122.1875 803.171875 95.425781 778.644531 87.304688 744.617188 C 85.914062 738.78125 85.800781 729.355469 85.542969 594.96875 C 85.390625 516.085938 85.421875 451.546875 85.613281 451.546875 C 85.800781 451.546875 88.519531 452.519531 91.65625 453.710938 C 106.429688 459.316406 123.058594 463.234375 139.183594 464.902344 C 150.714844 466.097656 173.800781 465.46875 185.363281 463.648438 C 220.082031 458.175781 251.398438 443.515625 279.1875 419.722656 L 282.511719 416.875 L 289.933594 423.078125 C 317.34375 446 353.261719 461.140625 389.113281 464.894531 C 402.316406 466.277344 426.96875 465.480469 439.308594 463.269531 C 471.460938 457.507812 500.265625 444.378906 525.359375 424.039062 L 534.089844 416.960938 L 540.300781 422.261719 C 549.105469 429.777344 565.660156 440.648438 576.644531 446.125 C 601.523438 458.527344 625.621094 464.628906 652.90625 465.433594 C 676.820312 466.136719 696.046875 463.390625 717.332031 456.234375 C 723.382812 454.199219 729 452.265625 729.8125 451.941406 C 731.234375 451.371094 731.285156 457.382812 731.015625 594.867188 C 730.757812 727.671875 730.628906 738.839844 729.296875 744.390625 C 721.691406 776.0625 699.867188 798.246094 668.4375 806.253906 C 661.097656 808.125 660.96875 808.128906 592.175781 808.128906 C 535.433594 808.128906 522.535156 807.921875 519.117188 806.960938 C 505.320312 803.074219 493.605469 791.097656 490.523438 777.734375 C 489.996094 775.453125 489.675781 750.609375 489.664062 711.289062 C 489.652344 673.929688 489.292969 645.078125 488.78125 640.074219 C 486.183594 614.777344 473.394531 593.402344 452.804688 579.941406 C 444.894531 574.773438 438.894531 572.046875 428.621094 568.953125 C 421.996094 566.960938 419.734375 566.699219 408.695312 566.640625 C 394.65625 566.574219 390.707031 567.363281 378.25 572.734375 C 367.839844 577.21875 362.636719 580.550781 355.046875 587.589844 C 344.328125 597.53125 337.351562 607.859375 332.316406 621.238281 C 327.40625 634.296875 327.546875 631.972656 327 708.085938 L 326.5 778.242188 L 324.609375 782.695312 C 319.722656 794.195312 310.816406 802.484375 298.789062 806.71875 C 295.382812 807.917969 287.46875 808.085938 228.121094 808.214844 C 191.363281 808.292969 158.953125 808.050781 156.097656 807.671875 Z M 147.175781 404.230469 C 131.8125 403.019531 116.429688 398.699219 101.511719 391.414062 C 70.179688 376.109375 45.96875 346.605469 36.839844 312.609375 C 33.089844 298.644531 31.789062 284.203125 33.011719 270.109375 C 34.128906 257.277344 71.863281 67.648438 75.46875 56.773438 C 84.324219 30.039062 104.601562 11.480469 133.226562 3.910156 L 140.53125 1.980469 L 676.027344 1.980469 L 683.265625 3.894531 C 711.136719 11.269531 731.023438 28.976562 740.472656 54.835938 C 742.253906 59.710938 748.632812 89.871094 762.035156 156.816406 C 772.503906 209.101562 781.660156 255.425781 782.382812 259.765625 C 784.175781 270.5 784.160156 290.253906 782.351562 300.445312 C 773.136719 352.394531 734.761719 391.867188 683.308594 402.324219 C 677.660156 403.472656 672.121094 403.796875 658.59375 403.777344 C 643.152344 403.753906 640.257812 403.53125 633.273438 401.804688 C 616.363281 397.628906 602.242188 391.4375 588.859375 382.324219 C 579.828125 376.175781 564.84375 361.414062 558.417969 352.335938 C 546.921875 336.09375 539.265625 316.835938 536.488281 297.171875 C 535.816406 292.40625 535.066406 288.304688 534.824219 288.0625 C 534.003906 287.246094 532.925781 289.972656 532.40625 294.179688 C 525.679688 348.648438 486.785156 391.167969 433.679688 402.109375 C 417.460938 405.453125 400.445312 405.222656 377.753906 401.363281 C 357.242188 397.871094 346.277344 393.800781 332.550781 384.585938 C 310.4375 369.738281 293.898438 344.078125 283.707031 308.796875 C 281.664062 301.726562 277.113281 280.148438 277.109375 277.511719 C 277.105469 275.269531 278.359375 275.011719 297.03125 273.449219 C 325.488281 271.066406 340.980469 270.582031 362.292969 271.414062 C 400.527344 272.902344 422.316406 276.890625 446.628906 286.847656 C 451.511719 288.847656 456.027344 290.484375 456.671875 290.484375 C 458.652344 290.484375 460.585938 287.585938 460.59375 284.605469 C 460.601562 283.042969 458.929688 276.910156 456.882812 270.972656 C 452.242188 257.527344 397.996094 90.59375 393.480469 75.871094 C 391.660156 69.933594 389.359375 62.3125 388.371094 58.929688 C 384.371094 45.269531 377.789062 44.636719 369.324219 57.09375 C 360.09375 70.675781 326.175781 105.191406 303.257812 124.320312 C 260.152344 160.296875 215.84375 187.785156 175.402344 203.636719 C 157.511719 210.648438 153.1875 212.71875 149.535156 216.019531 C 140.890625 223.828125 138.984375 237.660156 143.886719 257.042969 C 149.335938 278.597656 159.316406 293.988281 170.183594 297.597656 C 176.808594 299.796875 188.652344 298.859375 201.296875 295.128906 C 206.863281 293.488281 212.152344 292.144531 213.054688 292.144531 C 214.390625 292.144531 217.964844 298.75 232.195312 327.527344 L 249.699219 362.910156 L 247.417969 365.527344 C 243.199219 370.375 233.34375 378.6875 225.933594 383.648438 C 209.777344 394.472656 187.714844 402.414062 170.007812 403.785156 C 157.554688 404.75 154.515625 404.808594 147.175781 404.230469 Z M 566.9375 233.804688 C 572.457031 230.117188 574.15625 223.238281 570.796875 218.167969 C 567.65625 213.429688 563.347656 211.996094 539.871094 207.882812 C 528 205.800781 514.363281 203.15625 509.566406 202 C 497.070312 198.992188 491.601562 198.648438 487.980469 200.636719 C 483.648438 203.015625 481.339844 206.902344 481.339844 211.816406 C 481.339844 215.359375 481.71875 216.308594 484.078125 218.664062 C 487.417969 222.007812 488.492188 222.316406 512.890625 226.941406 C 523.621094 228.976562 537.816406 231.738281 544.4375 233.082031 C 559.601562 236.160156 563.238281 236.273438 566.9375 233.804688 Z M 524.925781 157.171875 C 542.734375 153.714844 559.246094 150.515625 561.613281 150.066406 C 567.171875 149.011719 571.019531 146.402344 573.007812 142.34375 C 574.402344 139.496094 574.472656 138.644531 573.589844 135.300781 C 573.039062 133.207031 571.472656 130.375 570.113281 129.003906 C 567.859375 126.734375 567.1875 126.523438 562.476562 126.628906 C 559.632812 126.691406 545.910156 129.039062 531.984375 131.84375 C 518.058594 134.648438 503.519531 137.496094 499.675781 138.167969 C 489.136719 140.015625 486.566406 140.878906 483.429688 143.632812 C 475.917969 150.230469 480.941406 162.84375 491.304688 163.394531 C 491.988281 163.429688 507.117188 160.628906 524.925781 157.171875 Z M 476.59375 108.144531 C 478.976562 106.949219 482.605469 104.746094 484.660156 103.253906 C 490.613281 98.925781 531.382812 71.207031 536.910156 67.726562 C 543.726562 63.441406 546.234375 60.019531 546.234375 55.027344 C 546.234375 48.835938 541.667969 44.007812 535.191406 43.359375 C 530.675781 42.90625 531.976562 42.121094 492.546875 69.023438 C 464.539062 88.132812 461.664062 90.3125 459.945312 93.71875 C 455.945312 101.640625 461.039062 108.855469 471.613281 110.238281 C 471.96875 110.285156 474.210938 109.34375 476.59375 108.144531 Z M 476.59375 108.144531 " fill-opacity="1" fill-rule="nonzero"/></svg>